<svg xmlns="http://www.w3.org/2000/svg" viewBox="0 0 900 1600" width="900" height="1600"><defs>
<linearGradient id="bgs3" x1="0" y1="0" x2="0" y2="1"><stop offset="0" stop-color="#03191b"/><stop offset="1" stop-color="#0b4a50"/></linearGradient>
<radialGradient id="gls3" cx=".5" cy=".35" r=".7"><stop offset="0" stop-color="#33c2c9" stop-opacity=".55"/><stop offset="1" stop-color="#33c2c9" stop-opacity="0"/></radialGradient>
<linearGradient id="fls3" x1="0" y1="0" x2="0" y2="1"><stop offset="0" stop-color="#33c2c9" stop-opacity=".3"/><stop offset="1" stop-color="#03191b" stop-opacity="0"/></linearGradient>
<filter id="bs3" x="-30%" y="-30%" width="160%" height="160%"><feGaussianBlur stdDeviation="14"/></filter>
</defs><rect width="900" height="1600" fill="#0b0b10"/><g><rect x="34.0" y="0.0" width="832.0" height="700.0" fill="url(#bgs3)"/><ellipse cx="450.0" cy="252.0" rx="499.2" ry="294.0" fill="url(#gls3)"/><path d="M-20.0,446.9 Q-7.0,431.5 6.0,447.8 Q19.0,423.2 32.0,438.6 Q45.0,423.2 58.0,469.1 Q71.0,452.9 84.0,468.3 Q97.0,436.0 110.0,451.4 Q123.0,436.0 136.0,451.6 Q149.0,422.9 162.0,438.3 Q175.0,422.9 188.0,466.1 Q201.0,450.7 214.0,479.2 Q227.0,427.0 240.0,442.4 Q253.0,425.0 266.0,440.4 Q279.0,425.0 292.0,471.3 Q305.0,426.5 318.0,441.9 Q331.0,422.6 344.0,438.0 Q357.0,420.7 370.0,436.1 Q383.0,420.7 396.0,478.8 L920,700.0 L-20,700.0 Z" fill="#03191b" opacity="0.6"/><rect x="34.0" y="518.0" width="832.0" height="182.0" fill="url(#fls3)"/><circle cx="758.2" cy="424.1" r="2.1" fill="#ccf6f8" opacity="0.7"/><circle cx="356.0" cy="443.0" r="1.1" fill="#ccf6f8" opacity="0.3"/><circle cx="435.7" cy="355.8" r="1.4" fill="#ccf6f8" opacity="0.2"/><circle cx="399.7" cy="164.2" r="1.5" fill="#ccf6f8" opacity="0.7"/><circle cx="779.1" cy="89.6" r="0.9" fill="#ccf6f8" opacity="0.7"/><circle cx="136.7" cy="40.7" r="1.8" fill="#ccf6f8" opacity="0.7"/><circle cx="313.6" cy="663.8" r="1.1" fill="#ccf6f8" opacity="0.2"/><circle cx="301.4" cy="243.1" r="1.9" fill="#ccf6f8" opacity="0.5"/><circle cx="811.8" cy="633.9" r="2.0" fill="#ccf6f8" opacity="0.2"/><circle cx="458.6" cy="400.9" r="0.9" fill="#ccf6f8" opacity="0.2"/><circle cx="639.5" cy="356.7" r="2.6" fill="#ccf6f8" opacity="0.2"/><circle cx="835.5" cy="674.2" r="2.9" fill="#ccf6f8" opacity="0.4"/><circle cx="773.4" cy="35.0" r="2.8" fill="#ccf6f8" opacity="0.7"/><circle cx="288.0" cy="524.8" r="1.0" fill="#ccf6f8" opacity="0.3"/><circle cx="543.1" cy="395.7" r="2.4" fill="#ccf6f8" opacity="0.6"/><circle cx="197.4" cy="519.9" r="1.1" fill="#ccf6f8" opacity="0.3"/><circle cx="543.1" cy="344.2" r="1.3" fill="#ccf6f8" opacity="0.7"/><circle cx="726.2" cy="351.7" r="2.1" fill="#ccf6f8" opacity="0.6"/><circle cx="835.7" cy="309.7" r="2.9" fill="#ccf6f8" opacity="0.3"/><circle cx="429.3" cy="655.9" r="2.7" fill="#ccf6f8" opacity="0.7"/><circle cx="864.9" cy="668.6" r="1.5" fill="#ccf6f8" opacity="0.4"/><circle cx="740.3" cy="582.5" r="2.6" fill="#ccf6f8" opacity="0.2"/><circle cx="734.3" cy="664.6" r="1.5" fill="#ccf6f8" opacity="0.3"/><circle cx="542.8" cy="598.1" r="0.8" fill="#ccf6f8" opacity="0.5"/><circle cx="87.7" cy="77.3" r="1.9" fill="#ccf6f8" opacity="0.3"/><circle cx="196.2" cy="694.7" r="1.9" fill="#ccf6f8" opacity="0.5"/><circle cx="506.2" cy="678.9" r="1.1" fill="#ccf6f8" opacity="0.7"/><circle cx="289.9" cy="611.3" r="2.0" fill="#ccf6f8" opacity="0.2"/><circle cx="760.3" cy="565.7" r="2.7" fill="#ccf6f8" opacity="0.7"/><circle cx="522.5" cy="178.1" r="2.0" fill="#ccf6f8" opacity="0.2"/><circle cx="835.7" cy="161.3" r="1.9" fill="#ccf6f8" opacity="0.2"/><circle cx="437.8" cy="467.1" r="2.1" fill="#ccf6f8" opacity="0.5"/><circle cx="216.4" cy="572.6" r="2.8" fill="#ccf6f8" opacity="0.7"/><circle cx="751.2" cy="391.4" r="2.8" fill="#ccf6f8" opacity="0.4"/><circle cx="649.8" cy="675.6" r="1.6" fill="#ccf6f8" opacity="0.6"/><circle cx="819.5" cy="10.8" r="1.2" fill="#ccf6f8" opacity="0.4"/><circle cx="213.4" cy="448.0" r="2.5" fill="#ccf6f8" opacity="0.6"/><circle cx="202.6" cy="212.2" r="1.3" fill="#ccf6f8" opacity="0.6"/><circle cx="590.2" cy="516.8" r="2.0" fill="#ccf6f8" opacity="0.2"/><circle cx="599.9" cy="344.7" r="2.7" fill="#ccf6f8" opacity="0.7"/><circle cx="238.4" cy="114.9" r="1.0" fill="#ccf6f8" opacity="0.7"/><circle cx="514.5" cy="203.3" r="2.8" fill="#ccf6f8" opacity="0.7"/><circle cx="638.3" cy="271.7" r="3.0" fill="#ccf6f8" opacity="0.5"/><circle cx="134.2" cy="333.9" r="2.8" fill="#ccf6f8" opacity="0.3"/><circle cx="819.0" cy="284.3" r="1.2" fill="#ccf6f8" opacity="0.4"/><circle cx="750.7" cy="635.3" r="1.8" fill="#ccf6f8" opacity="0.5"/><circle cx="605.5" cy="690.8" r="1.2" fill="#ccf6f8" opacity="0.5"/><circle cx="292.6" cy="268.2" r="2.4" fill="#ccf6f8" opacity="0.6"/><circle cx="618.3" cy="134.4" r="2.6" fill="#ccf6f8" opacity="0.2"/><circle cx="121.2" cy="428.9" r="1.8" fill="#ccf6f8" opacity="0.7"/><circle cx="314.6" cy="266.2" r="2.5" fill="#ccf6f8" opacity="0.8"/><circle cx="173.7" cy="141.3" r="1.8" fill="#ccf6f8" opacity="0.7"/><circle cx="255.5" cy="75.3" r="2.2" fill="#ccf6f8" opacity="0.6"/><circle cx="104.9" cy="513.6" r="2.0" fill="#ccf6f8" opacity="0.2"/><circle cx="201.6" cy="579.8" r="1.7" fill="#ccf6f8" opacity="0.4"/><circle cx="818.1" cy="284.8" r="1.0" fill="#ccf6f8" opacity="0.6"/><circle cx="230.2" cy="669.8" r="1.0" fill="#ccf6f8" opacity="0.7"/><circle cx="223.3" cy="460.0" r="2.3" fill="#ccf6f8" opacity="0.2"/><circle cx="451.6" cy="389.5" r="1.1" fill="#ccf6f8" opacity="0.4"/><circle cx="652.1" cy="220.0" r="2.5" fill="#ccf6f8" opacity="0.7"/><circle cx="151.3" cy="80.3" r="0.8" fill="#ccf6f8" opacity="0.8"/><circle cx="156.3" cy="383.3" r="2.9" fill="#ccf6f8" opacity="0.7"/><circle cx="776.0" cy="114.4" r="2.5" fill="#ccf6f8" opacity="0.3"/><circle cx="818.5" cy="452.5" r="1.9" fill="#ccf6f8" opacity="0.4"/><circle cx="369.7" cy="324.8" r="1.1" fill="#ccf6f8" opacity="0.7"/><circle cx="781.7" cy="639.1" r="1.6" fill="#ccf6f8" opacity="0.5"/><circle cx="239.3" cy="290.6" r="2.9" fill="#ccf6f8" opacity="0.6"/><circle cx="681.6" cy="522.6" r="1.8" fill="#ccf6f8" opacity="0.5"/><circle cx="700.1" cy="170.1" r="1.2" fill="#ccf6f8" opacity="0.6"/><circle cx="159.3" cy="6.4" r="3.0" fill="#ccf6f8" opacity="0.6"/><g><path d="M456.2,361.3 q56.0,-28.0 112.0,0 C600.9,464.0 638.2,520.0 619.5,534.0 L404.9,534.0 C386.2,520.0 423.5,464.0 456.2,361.3 Z" fill="#07070c"/><path d="M481.9,310.0 q30.3,-60.7 60.7,0 q7.0,37.3 -4.7,51.3 l-51.3,0 q-11.7,-14.0 -4.7,-51.3 Z" fill="#07070c"/><g transform="translate(-5.8,-3.5)" opacity=".95"><path d="M481.9,310.0 q30.3,-60.7 60.7,0 q7.0,37.3 -4.7,51.3 l-51.3,0 q-11.7,-14.0 -4.7,-51.3 Z" fill="none" stroke="#33c2c9" stroke-width="5.1" stroke-linejoin="round"/><path d="M456.2,361.3 q56.0,-28.0 112.0,0 C600.9,464.0 638.2,520.0 619.5,534.0 L404.9,534.0 C386.2,520.0 423.5,464.0 456.2,361.3 Z" fill="none" stroke="#33c2c9" stroke-width="4.2" stroke-linejoin="round" opacity=".75"/></g></g><ellipse cx="402.4" cy="140.0" rx="124.9" ry="68.6" fill="#fff" stroke="#141414" stroke-width="3.2"/><polygon points="349.9,196.2 305.0,181.1 283.8,242.9" fill="#fff" stroke="#141414" stroke-width="3.2" stroke-linejoin="round"/><ellipse cx="402.4" cy="140.0" rx="122.5" ry="66.2" fill="#fff"/><rect x="324.9" y="116.0" width="155.0" height="7.5" rx="3.5" fill="#2c2c2c" opacity=".85"/><rect x="338.1" y="136.0" width="128.6" height="7.5" rx="3.5" fill="#2c2c2c" opacity=".85"/><rect x="352.4" y="156.0" width="100.0" height="7.5" rx="3.5" fill="#2c2c2c" opacity=".85"/><polygon points="131.0,398.0 186.8,330.0 272.0,398.0 333.4,330.0 388.5,398.0 474.5,330.0 538.2,398.0 609.1,330.0 678.9,398.0" fill="#33c2c9" stroke="#0b0b10" stroke-width="4"/></g><g><rect x="0.0" y="700.0" width="900.0" height="520.0" fill="url(#bgs3)"/><ellipse cx="450.0" cy="887.2" rx="540.0" ry="218.4" fill="url(#gls3)"/><path d="M-20.0,1020.2 Q-7.0,1004.8 6.0,1030.4 Q19.0,1015.0 32.0,1033.0 Q45.0,1007.9 58.0,1023.3 Q71.0,1006.3 84.0,1021.7 Q97.0,1006.3 110.0,1028.4 Q123.0,1013.0 136.0,1040.4 Q149.0,998.0 162.0,1013.4 Q175.0,998.0 188.0,1015.9 Q201.0,1000.5 214.0,1026.6 Q227.0,1011.2 240.0,1039.9 Q253.0,1003.9 266.0,1019.3 Q279.0,1003.9 292.0,1031.7 Q305.0,1016.3 318.0,1041.2 Q331.0,1021.2 344.0,1036.6 Q357.0,1018.5 370.0,1033.9 Q383.0,1000.0 396.0,1015.4 L920,1220.0 L-20,1220.0 Z" fill="#03191b" opacity="0.6"/><rect x="0.0" y="1084.8" width="900.0" height="135.2" fill="url(#fls3)"/><circle cx="428.1" cy="988.9" r="1.6" fill="#ccf6f8" opacity="0.3"/><circle cx="657.7" cy="841.6" r="2.3" fill="#ccf6f8" opacity="0.3"/><circle cx="570.3" cy="812.0" r="1.6" fill="#ccf6f8" opacity="0.3"/><circle cx="387.0" cy="1010.0" r="2.4" fill="#ccf6f8" opacity="0.6"/><circle cx="74.5" cy="952.7" r="1.8" fill="#ccf6f8" opacity="0.4"/><circle cx="382.2" cy="919.5" r="2.2" fill="#ccf6f8" opacity="0.6"/><circle cx="771.5" cy="734.3" r="1.1" fill="#ccf6f8" opacity="0.5"/><circle cx="581.8" cy="1092.5" r="1.1" fill="#ccf6f8" opacity="0.7"/><circle cx="457.7" cy="777.5" r="1.3" fill="#ccf6f8" opacity="0.7"/><circle cx="435.3" cy="1035.4" r="2.5" fill="#ccf6f8" opacity="0.3"/><circle cx="809.7" cy="1109.9" r="1.1" fill="#ccf6f8" opacity="0.6"/><circle cx="665.0" cy="734.1" r="2.6" fill="#ccf6f8" opacity="0.5"/><circle cx="872.0" cy="707.9" r="0.9" fill="#ccf6f8" opacity="0.6"/><circle cx="537.5" cy="1177.0" r="1.3" fill="#ccf6f8" opacity="0.4"/><circle cx="384.5" cy="1118.0" r="2.5" fill="#ccf6f8" opacity="0.8"/><circle cx="725.8" cy="1009.2" r="1.4" fill="#ccf6f8" opacity="0.8"/><circle cx="157.6" cy="722.0" r="2.0" fill="#ccf6f8" opacity="0.7"/><circle cx="438.8" cy="760.9" r="1.9" fill="#ccf6f8" opacity="0.3"/><circle cx="304.7" cy="1085.1" r="1.8" fill="#ccf6f8" opacity="0.5"/><circle cx="543.5" cy="1052.6" r="2.8" fill="#ccf6f8" opacity="0.6"/><circle cx="594.4" cy="1170.4" r="2.6" fill="#ccf6f8" opacity="0.5"/><circle cx="822.1" cy="1044.1" r="2.4" fill="#ccf6f8" opacity="0.4"/><circle cx="700.2" cy="1164.6" r="1.8" fill="#ccf6f8" opacity="0.3"/><circle cx="402.6" cy="786.1" r="2.4" fill="#ccf6f8" opacity="0.4"/><circle cx="225.6" cy="908.8" r="2.8" fill="#ccf6f8" opacity="0.7"/><circle cx="649.7" cy="1070.8" r="2.8" fill="#ccf6f8" opacity="0.8"/><circle cx="823.3" cy="1098.0" r="2.8" fill="#ccf6f8" opacity="0.6"/><circle cx="769.3" cy="950.8" r="1.5" fill="#ccf6f8" opacity="0.3"/><circle cx="179.1" cy="1074.7" r="2.6" fill="#ccf6f8" opacity="0.6"/><circle cx="531.4" cy="743.3" r="2.2" fill="#ccf6f8" opacity="0.6"/><circle cx="96.2" cy="825.1" r="2.0" fill="#ccf6f8" opacity="0.4"/><circle cx="320.6" cy="906.9" r="1.0" fill="#ccf6f8" opacity="0.7"/><circle cx="579.6" cy="1177.7" r="1.1" fill="#ccf6f8" opacity="0.3"/><circle cx="160.0" cy="1029.4" r="1.8" fill="#ccf6f8" opacity="0.7"/><circle cx="873.3" cy="783.9" r="1.2" fill="#ccf6f8" opacity="0.3"/><circle cx="297.4" cy="808.7" r="2.6" fill="#ccf6f8" opacity="0.7"/><circle cx="332.8" cy="1035.0" r="1.7" fill="#ccf6f8" opacity="0.3"/><circle cx="527.5" cy="1218.2" r="2.7" fill="#ccf6f8" opacity="0.8"/><circle cx="141.8" cy="748.4" r="1.9" fill="#ccf6f8" opacity="0.5"/><circle cx="631.0" cy="707.2" r="2.6" fill="#ccf6f8" opacity="0.6"/><circle cx="240.7" cy="798.1" r="2.0" fill="#ccf6f8" opacity="0.5"/><circle cx="75.1" cy="1094.3" r="0.8" fill="#ccf6f8" opacity="0.4"/><circle cx="658.4" cy="1017.4" r="2.7" fill="#ccf6f8" opacity="0.6"/><circle cx="474.4" cy="1013.7" r="2.5" fill="#ccf6f8" opacity="0.8"/><circle cx="80.4" cy="732.9" r="1.0" fill="#ccf6f8" opacity="0.4"/><circle cx="530.3" cy="898.5" r="1.2" fill="#ccf6f8" opacity="0.2"/><circle cx="320.2" cy="1048.3" r="1.6" fill="#ccf6f8" opacity="0.4"/><circle cx="815.6" cy="1139.7" r="2.5" fill="#ccf6f8" opacity="0.4"/><circle cx="534.4" cy="990.8" r="1.7" fill="#ccf6f8" opacity="0.4"/><circle cx="856.9" cy="833.4" r="0.9" fill="#ccf6f8" opacity="0.5"/><circle cx="859.8" cy="1076.5" r="1.7" fill="#ccf6f8" opacity="0.3"/><circle cx="751.9" cy="807.8" r="1.6" fill="#ccf6f8" opacity="0.7"/><circle cx="516.2" cy="816.7" r="2.3" fill="#ccf6f8" opacity="0.3"/><circle cx="416.3" cy="788.8" r="2.4" fill="#ccf6f8" opacity="0.3"/><circle cx="807.3" cy="722.6" r="2.1" fill="#ccf6f8" opacity="0.6"/><circle cx="894.8" cy="722.8" r="2.0" fill="#ccf6f8" opacity="0.6"/><circle cx="780.5" cy="1098.4" r="1.0" fill="#ccf6f8" opacity="0.4"/><circle cx="896.8" cy="900.7" r="3.0" fill="#ccf6f8" opacity="0.2"/><circle cx="263.1" cy="911.6" r="1.5" fill="#ccf6f8" opacity="0.6"/><circle cx="478.0" cy="936.2" r="1.1" fill="#ccf6f8" opacity="0.3"/><circle cx="68.9" cy="753.2" r="1.6" fill="#ccf6f8" opacity="0.5"/><circle cx="784.8" cy="1105.4" r="1.3" fill="#ccf6f8" opacity="0.7"/><circle cx="578.7" cy="1179.5" r="1.0" fill="#ccf6f8" opacity="0.4"/><circle cx="71.3" cy="1046.8" r="2.7" fill="#ccf6f8" opacity="0.3"/><circle cx="299.6" cy="981.0" r="2.7" fill="#ccf6f8" opacity="0.6"/><circle cx="688.1" cy="981.1" r="2.4" fill="#ccf6f8" opacity="0.2"/><circle cx="428.5" cy="849.9" r="3.0" fill="#ccf6f8" opacity="0.7"/><circle cx="561.0" cy="864.9" r="2.4" fill="#ccf6f8" opacity="0.4"/><circle cx="383.0" cy="968.9" r="1.3" fill="#ccf6f8" opacity="0.4"/><circle cx="651.8" cy="1077.4" r="2.9" fill="#ccf6f8" opacity="0.7"/><g><path d="M487.9,972.5 q41.6,-20.8 83.2,0 C595.4,1048.8 623.1,1090.4 609.3,1100.8 L449.8,1100.8 C435.9,1090.4 463.7,1048.8 487.9,972.5 Z" fill="#07070c"/><path d="M507.0,934.4 q22.5,-45.1 45.1,0 q5.2,27.7 -3.5,38.1 l-38.1,0 q-8.7,-10.4 -3.5,-38.1 Z" fill="#07070c"/><g transform="translate(-4.3,-2.6)" opacity=".95"><path d="M507.0,934.4 q22.5,-45.1 45.1,0 q5.2,27.7 -3.5,38.1 l-38.1,0 q-8.7,-10.4 -3.5,-38.1 Z" fill="none" stroke="#33c2c9" stroke-width="3.8" stroke-linejoin="round"/><path d="M487.9,972.5 q41.6,-20.8 83.2,0 C595.4,1048.8 623.1,1090.4 609.3,1100.8 L449.8,1100.8 C435.9,1090.4 463.7,1048.8 487.9,972.5 Z" fill="none" stroke="#33c2c9" stroke-width="3.1" stroke-linejoin="round" opacity=".75"/></g></g><ellipse cx="368.8" cy="804.0" rx="169.0" ry="56.8" fill="#fff" stroke="#141414" stroke-width="3.2"/><polygon points="439.8,850.6 500.6,838.1 529.4,889.2" fill="#fff" stroke="#141414" stroke-width="3.2" stroke-linejoin="round"/><ellipse cx="368.8" cy="804.0" rx="166.6" ry="54.4" fill="#fff"/><rect x="284.1" y="790.0" width="169.3" height="7.5" rx="3.5" fill="#2c2c2c" opacity=".85"/><rect x="264.5" y="810.0" width="208.6" height="7.5" rx="3.5" fill="#2c2c2c" opacity=".85"/><polygon points="106.8,1004.4 189.7,936.4 265.8,1004.4 328.2,936.4 398.3,1004.4 467.1,936.4 527.1,1004.4 615.8,936.4 676.4,1004.4" fill="#33c2c9" stroke="#0b0b10" stroke-width="4"/></g><g><rect x="34.0" y="1220.0" width="832.0" height="380.0" fill="url(#bgs3)"/><ellipse cx="450.0" cy="1356.8" rx="499.2" ry="159.6" fill="url(#gls3)"/><path d="M-20.0,1443.3 Q-7.0,1409.3 6.0,1424.7 Q19.0,1409.3 32.0,1425.2 Q45.0,1409.8 58.0,1440.7 Q71.0,1425.3 84.0,1445.6 Q97.0,1430.2 110.0,1453.1 Q123.0,1437.7 136.0,1458.7 Q149.0,1434.6 162.0,1450.0 Q175.0,1405.3 188.0,1420.7 Q201.0,1405.3 214.0,1427.2 Q227.0,1411.8 240.0,1432.5 Q253.0,1417.1 266.0,1445.4 Q279.0,1430.0 292.0,1462.2 Q305.0,1419.3 318.0,1434.7 Q331.0,1419.3 344.0,1460.4 Q357.0,1424.1 370.0,1439.5 Q383.0,1405.2 396.0,1420.6 L920,1600.0 L-20,1600.0 Z" fill="#03191b" opacity="0.6"/><rect x="34.0" y="1501.2" width="832.0" height="98.8" fill="url(#fls3)"/><circle cx="61.5" cy="1280.9" r="1.3" fill="#ccf6f8" opacity="0.5"/><circle cx="823.3" cy="1425.6" r="1.2" fill="#ccf6f8" opacity="0.5"/><circle cx="642.9" cy="1589.2" r="1.9" fill="#ccf6f8" opacity="0.5"/><circle cx="679.2" cy="1298.8" r="1.3" fill="#ccf6f8" opacity="0.6"/><circle cx="605.1" cy="1385.9" r="1.3" fill="#ccf6f8" opacity="0.7"/><circle cx="793.5" cy="1278.9" r="2.8" fill="#ccf6f8" opacity="0.2"/><circle cx="733.9" cy="1456.4" r="2.6" fill="#ccf6f8" opacity="0.3"/><circle cx="385.5" cy="1504.3" r="1.4" fill="#ccf6f8" opacity="0.8"/><circle cx="571.9" cy="1263.4" r="2.4" fill="#ccf6f8" opacity="0.3"/><circle cx="472.4" cy="1276.0" r="1.4" fill="#ccf6f8" opacity="0.4"/><circle cx="652.5" cy="1281.0" r="2.7" fill="#ccf6f8" opacity="0.6"/><circle cx="146.1" cy="1523.8" r="0.8" fill="#ccf6f8" opacity="0.2"/><circle cx="623.4" cy="1297.2" r="0.8" fill="#ccf6f8" opacity="0.3"/><circle cx="238.0" cy="1483.6" r="2.5" fill="#ccf6f8" opacity="0.2"/><circle cx="404.6" cy="1465.5" r="1.3" fill="#ccf6f8" opacity="0.6"/><circle cx="431.0" cy="1555.1" r="1.9" fill="#ccf6f8" opacity="0.4"/><circle cx="115.4" cy="1323.4" r="2.3" fill="#ccf6f8" opacity="0.7"/><circle cx="136.0" cy="1389.4" r="3.0" fill="#ccf6f8" opacity="0.7"/><circle cx="163.4" cy="1501.0" r="1.3" fill="#ccf6f8" opacity="0.3"/><circle cx="140.8" cy="1293.7" r="2.7" fill="#ccf6f8" opacity="0.3"/><circle cx="523.9" cy="1393.7" r="2.6" fill="#ccf6f8" opacity="0.5"/><circle cx="290.9" cy="1385.3" r="1.5" fill="#ccf6f8" opacity="0.6"/><circle cx="813.7" cy="1225.6" r="2.3" fill="#ccf6f8" opacity="0.3"/><circle cx="101.0" cy="1271.1" r="1.7" fill="#ccf6f8" opacity="0.8"/><circle cx="201.3" cy="1593.5" r="2.0" fill="#ccf6f8" opacity="0.4"/><circle cx="428.4" cy="1569.4" r="2.2" fill="#ccf6f8" opacity="0.6"/><circle cx="691.0" cy="1253.3" r="1.4" fill="#ccf6f8" opacity="0.5"/><circle cx="488.2" cy="1496.4" r="1.7" fill="#ccf6f8" opacity="0.3"/><circle cx="787.2" cy="1585.6" r="1.5" fill="#ccf6f8" opacity="0.2"/><circle cx="134.0" cy="1417.8" r="2.5" fill="#ccf6f8" opacity="0.2"/><circle cx="842.4" cy="1321.0" r="1.5" fill="#ccf6f8" opacity="0.5"/><circle cx="58.7" cy="1525.4" r="3.0" fill="#ccf6f8" opacity="0.5"/><circle cx="388.3" cy="1400.6" r="3.0" fill="#ccf6f8" opacity="0.3"/><circle cx="430.9" cy="1372.6" r="2.2" fill="#ccf6f8" opacity="0.5"/><circle cx="242.1" cy="1447.5" r="2.4" fill="#ccf6f8" opacity="0.4"/><circle cx="156.6" cy="1289.9" r="2.0" fill="#ccf6f8" opacity="0.5"/><circle cx="435.7" cy="1383.7" r="0.9" fill="#ccf6f8" opacity="0.2"/><circle cx="778.8" cy="1380.0" r="0.9" fill="#ccf6f8" opacity="0.5"/><circle cx="86.0" cy="1533.5" r="1.7" fill="#ccf6f8" opacity="0.6"/><circle cx="48.4" cy="1339.2" r="1.9" fill="#ccf6f8" opacity="0.5"/><circle cx="425.5" cy="1519.1" r="2.9" fill="#ccf6f8" opacity="0.3"/><circle cx="193.6" cy="1364.0" r="1.3" fill="#ccf6f8" opacity="0.6"/><circle cx="86.6" cy="1488.1" r="1.4" fill="#ccf6f8" opacity="0.2"/><circle cx="225.4" cy="1231.9" r="2.1" fill="#ccf6f8" opacity="0.6"/><circle cx="456.2" cy="1395.6" r="2.1" fill="#ccf6f8" opacity="0.4"/><circle cx="257.9" cy="1419.5" r="2.1" fill="#ccf6f8" opacity="0.6"/><circle cx="673.8" cy="1226.7" r="2.5" fill="#ccf6f8" opacity="0.3"/><circle cx="583.1" cy="1268.3" r="2.0" fill="#ccf6f8" opacity="0.7"/><circle cx="366.1" cy="1550.8" r="2.8" fill="#ccf6f8" opacity="0.6"/><circle cx="560.9" cy="1585.3" r="1.1" fill="#ccf6f8" opacity="0.5"/><circle cx="602.1" cy="1586.6" r="2.2" fill="#ccf6f8" opacity="0.8"/><circle cx="73.3" cy="1477.9" r="2.5" fill="#ccf6f8" opacity="0.3"/><circle cx="462.5" cy="1447.8" r="1.8" fill="#ccf6f8" opacity="0.5"/><circle cx="304.4" cy="1382.9" r="1.6" fill="#ccf6f8" opacity="0.2"/><circle cx="147.4" cy="1247.3" r="2.3" fill="#ccf6f8" opacity="0.5"/><circle cx="582.1" cy="1440.2" r="1.7" fill="#ccf6f8" opacity="0.5"/><circle cx="580.8" cy="1395.0" r="2.4" fill="#ccf6f8" opacity="0.2"/><circle cx="306.8" cy="1244.0" r="2.2" fill="#ccf6f8" opacity="0.8"/><circle cx="837.5" cy="1281.4" r="2.1" fill="#ccf6f8" opacity="0.8"/><circle cx="750.7" cy="1375.9" r="2.4" fill="#ccf6f8" opacity="0.6"/><circle cx="277.7" cy="1384.4" r="0.8" fill="#ccf6f8" opacity="0.5"/><circle cx="243.5" cy="1236.7" r="1.4" fill="#ccf6f8" opacity="0.5"/><circle cx="220.0" cy="1243.9" r="1.1" fill="#ccf6f8" opacity="0.3"/><circle cx="80.2" cy="1526.6" r="1.2" fill="#ccf6f8" opacity="0.2"/><circle cx="680.1" cy="1486.1" r="0.9" fill="#ccf6f8" opacity="0.6"/><circle cx="747.3" cy="1580.9" r="2.1" fill="#ccf6f8" opacity="0.6"/><circle cx="687.3" cy="1543.0" r="2.9" fill="#ccf6f8" opacity="0.6"/><circle cx="556.0" cy="1490.2" r="1.0" fill="#ccf6f8" opacity="0.2"/><circle cx="276.2" cy="1498.7" r="2.6" fill="#ccf6f8" opacity="0.6"/><circle cx="453.8" cy="1290.7" r="1.5" fill="#ccf6f8" opacity="0.5"/><g><path d="M502.7,1423.5 q30.4,-15.2 60.8,0 C581.2,1479.2 601.5,1509.6 591.4,1517.2 L474.8,1517.2 C464.7,1509.6 485.0,1479.2 502.7,1423.5 Z" fill="#07070c"/><path d="M516.6,1395.6 q16.5,-32.9 32.9,0 q3.8,20.3 -2.5,27.9 l-27.9,0 q-6.3,-7.6 -2.5,-27.9 Z" fill="#07070c"/><g transform="translate(-3.2,-1.9)" opacity=".95"><path d="M516.6,1395.6 q16.5,-32.9 32.9,0 q3.8,20.3 -2.5,27.9 l-27.9,0 q-6.3,-7.6 -2.5,-27.9 Z" fill="none" stroke="#33c2c9" stroke-width="2.8" stroke-linejoin="round"/><path d="M502.7,1423.5 q30.4,-15.2 60.8,0 C581.2,1479.2 601.5,1509.6 591.4,1517.2 L474.8,1517.2 C464.7,1509.6 485.0,1479.2 502.7,1423.5 Z" fill="none" stroke="#33c2c9" stroke-width="2.3" stroke-linejoin="round" opacity=".75"/></g></g><ellipse cx="288.8" cy="1296.0" rx="161.7" ry="53.0" fill="#fff" stroke="#141414" stroke-width="3.2"/><polygon points="356.8,1339.4 415.0,1327.8 442.5,1375.5" fill="#fff" stroke="#141414" stroke-width="3.2" stroke-linejoin="round"/><ellipse cx="288.8" cy="1296.0" rx="159.3" ry="50.6" fill="#fff"/><rect x="182.6" y="1282.0" width="212.5" height="7.5" rx="3.5" fill="#2c2c2c" opacity=".85"/><rect x="200.8" y="1302.0" width="176.0" height="7.5" rx="3.5" fill="#2c2c2c" opacity=".85"/><polygon points="136.9,1451.6 197.1,1383.6 269.4,1451.6 323.8,1383.6 414.0,1451.6 471.8,1383.6 532.9,1451.6 586.6,1383.6 665.0,1451.6" fill="#33c2c9" stroke="#0b0b10" stroke-width="4"/></g></svg>