<svg xmlns="http://www.w3.org/2000/svg" viewBox="0 0 800 1500" width="800" height="1500">
<defs>
 <linearGradient id="bg" x1="0" y1="0" x2="0" y2="1"><stop offset="0" stop-color="#1c1a0b"/><stop offset="1" stop-color="#b88a2c"/></linearGradient>
 <linearGradient id="glow" x1="0" y1="0" x2="1" y2="1"><stop offset="0" stop-color="#f7e7b8" stop-opacity=".9"/><stop offset="1" stop-color="#b88a2c" stop-opacity="0"/></linearGradient>
 <radialGradient id="light" cx=".5" cy=".3" r=".7"><stop offset="0" stop-color="#fff" stop-opacity=".35"/><stop offset="1" stop-color="#000" stop-opacity="0"/></radialGradient>
</defs>
<rect width="800" height="1500" fill="#0d0d12"/><g><rect x="0" y="0" width="800" height="520" rx="0" fill="url(#bg)"/><rect x="0" y="0" width="800" height="520" fill="url(#light)"/><circle cx="140" cy="201" r="2.7" fill="#fff" opacity="0.79"/><circle cx="730" cy="25" r="1.7" fill="#fff" opacity="0.75"/><circle cx="295" cy="404" r="1.9" fill="#fff" opacity="0.67"/><circle cx="680" cy="238" r="2.4" fill="#fff" opacity="0.55"/><circle cx="29" cy="36" r="1.3" fill="#fff" opacity="0.76"/><circle cx="102" cy="213" r="2.0" fill="#fff" opacity="0.24"/><circle cx="347" cy="389" r="1.7" fill="#fff" opacity="0.60"/><circle cx="67" cy="259" r="1.9" fill="#fff" opacity="0.27"/><circle cx="70" cy="70" r="1.8" fill="#fff" opacity="0.37"/><circle cx="670" cy="353" r="1.7" fill="#fff" opacity="0.61"/><circle cx="20" cy="134" r="2.3" fill="#fff" opacity="0.26"/><circle cx="198" cy="63" r="2.9" fill="#fff" opacity="0.25"/><circle cx="588" cy="321" r="1.9" fill="#fff" opacity="0.50"/><circle cx="462" cy="314" r="1.9" fill="#fff" opacity="0.49"/><circle cx="556" cy="201" r="1.6" fill="#fff" opacity="0.65"/><circle cx="32" cy="235" r="2.8" fill="#fff" opacity="0.65"/><circle cx="549" cy="394" r="1.1" fill="#fff" opacity="0.78"/><circle cx="511" cy="130" r="1.6" fill="#fff" opacity="0.63"/><circle cx="196" cy="349" r="1.8" fill="#fff" opacity="0.77"/><circle cx="606" cy="160" r="2.9" fill="#fff" opacity="0.56"/><circle cx="547" cy="214" r="2.5" fill="#fff" opacity="0.44"/><circle cx="352" cy="60" r="1.6" fill="#fff" opacity="0.27"/><circle cx="454" cy="416" r="2.8" fill="#fff" opacity="0.63"/><circle cx="273" cy="492" r="2.1" fill="#fff" opacity="0.70"/><circle cx="748" cy="232" r="1.2" fill="#fff" opacity="0.55"/><circle cx="499" cy="379" r="2.5" fill="#fff" opacity="0.35"/><circle cx="467" cy="383" r="1.0" fill="#fff" opacity="0.76"/><circle cx="666" cy="362" r="1.0" fill="#fff" opacity="0.26"/><circle cx="411" cy="88" r="1.1" fill="#fff" opacity="0.29"/><circle cx="456" cy="243" r="1.8" fill="#fff" opacity="0.33"/><circle cx="793" cy="94" r="1.6" fill="#fff" opacity="0.62"/><circle cx="272" cy="472" r="1.9" fill="#fff" opacity="0.55"/><circle cx="209" cy="135" r="2.6" fill="#fff" opacity="0.47"/><circle cx="299" cy="495" r="1.1" fill="#fff" opacity="0.75"/><circle cx="362" cy="422" r="2.1" fill="#fff" opacity="0.72"/><circle cx="593" cy="266" r="1.6" fill="#fff" opacity="0.57"/><circle cx="36" cy="230" r="1.0" fill="#fff" opacity="0.32"/><circle cx="636" cy="128" r="2.6" fill="#fff" opacity="0.71"/><circle cx="755" cy="258" r="2.4" fill="#fff" opacity="0.47"/><circle cx="594" cy="33" r="1.7" fill="#fff" opacity="0.77"/><ellipse cx="400.0" cy="442.0" rx="480.0" ry="104.0" fill="url(#glow)" opacity=".5"/><g transform="translate(280.0,322.4) scale(1.6421052631578947)"><ellipse cx="0" cy="-95" rx="26" ry="30" fill="#0a0a12"/><path d="M-42,-60 Q0,-80 42,-60 L58,90 Q0,110 -58,90 Z" fill="#0a0a12"/><path d="M-30,-58 L-70,60 L-46,64 Z" fill="#0a0a12"/><path d="M30,-58 L74,50 L50,56 Z" fill="#0a0a12"/></g><ellipse cx="280.0" cy="166.39999999999998" rx="24.63157894736842" ry="27.36842105263158" fill="#f7e7b8" opacity=".9"/><g transform="translate(520.0,322.4) scale(1.6421052631578947)"><ellipse cx="0" cy="-95" rx="26" ry="30" fill="#0a0a12"/><path d="M-42,-60 Q0,-80 42,-60 L58,90 Q0,110 -58,90 Z" fill="#0a0a12"/><path d="M-30,-58 L-70,60 L-46,64 Z" fill="#0a0a12"/><path d="M30,-58 L74,50 L50,56 Z" fill="#0a0a12"/></g><ellipse cx="520.0" cy="166.39999999999998" rx="24.63157894736842" ry="27.36842105263158" fill="#f7e7b8" opacity=".9"/><ellipse cx="504.40945188189687" cy="114.4" rx="121.88821087029265" ry="67.56078872470219" fill="#ffffff" stroke="#111" stroke-width="3"/><polygon points="547.0703256864992,171.82667041599686 595.8256100346164,161.69255210729153 601.920020578131,205.607064778348" fill="#ffffff" stroke="#111" stroke-width="3" stroke-linejoin="round"/><ellipse cx="504.40945188189687" cy="114.4" rx="119.88821087029265" ry="65.56078872470219" fill="#ffffff"/><rect x="436.61797230433103" y="92.4" width="135.58295915513168" height="7" rx="3" fill="#2a2a2a"/><rect x="442.6178838411991" y="110.4" width="123.58313608139551" height="7" rx="3" fill="#2a2a2a"/><rect x="415.48013400747277" y="128.4" width="177.85863574884814" height="7" rx="3" fill="#2a2a2a"/><polygon points="83,294 145,226 231,294 276,226 329,294 406,226 471,294 501,226 577,294" fill="#f7e7b8" stroke="#0d0d12" stroke-width="4" opacity=".95"/></g><g><rect x="40" y="530" width="720" height="580" rx="6" fill="url(#bg)"/><rect x="40" y="530" width="720" height="580" fill="url(#light)"/><circle cx="276" cy="752" r="1.3" fill="#fff" opacity="0.67"/><circle cx="281" cy="659" r="2.3" fill="#fff" opacity="0.46"/><circle cx="477" cy="670" r="1.9" fill="#fff" opacity="0.41"/><circle cx="487" cy="1008" r="1.2" fill="#fff" opacity="0.41"/><circle cx="151" cy="713" r="1.3" fill="#fff" opacity="0.61"/><circle cx="705" cy="1015" r="2.3" fill="#fff" opacity="0.68"/><circle cx="759" cy="944" r="1.1" fill="#fff" opacity="0.73"/><circle cx="321" cy="790" r="2.5" fill="#fff" opacity="0.58"/><circle cx="183" cy="851" r="2.4" fill="#fff" opacity="0.78"/><circle cx="422" cy="610" r="1.5" fill="#fff" opacity="0.36"/><circle cx="577" cy="708" r="2.4" fill="#fff" opacity="0.32"/><circle cx="486" cy="969" r="1.7" fill="#fff" opacity="0.36"/><circle cx="291" cy="1015" r="2.8" fill="#fff" opacity="0.33"/><circle cx="626" cy="675" r="2.7" fill="#fff" opacity="0.75"/><circle cx="253" cy="874" r="1.3" fill="#fff" opacity="0.36"/><circle cx="492" cy="1099" r="1.6" fill="#fff" opacity="0.37"/><circle cx="202" cy="1036" r="2.9" fill="#fff" opacity="0.39"/><circle cx="221" cy="787" r="1.4" fill="#fff" opacity="0.73"/><circle cx="587" cy="995" r="2.7" fill="#fff" opacity="0.27"/><circle cx="675" cy="1011" r="1.8" fill="#fff" opacity="0.62"/><circle cx="496" cy="590" r="2.7" fill="#fff" opacity="0.61"/><circle cx="213" cy="643" r="2.5" fill="#fff" opacity="0.71"/><circle cx="384" cy="735" r="2.2" fill="#fff" opacity="0.67"/><circle cx="477" cy="757" r="1.9" fill="#fff" opacity="0.61"/><circle cx="308" cy="635" r="2.1" fill="#fff" opacity="0.65"/><circle cx="325" cy="935" r="2.4" fill="#fff" opacity="0.53"/><circle cx="381" cy="1055" r="1.3" fill="#fff" opacity="0.39"/><circle cx="503" cy="557" r="2.3" fill="#fff" opacity="0.53"/><circle cx="270" cy="901" r="2.1" fill="#fff" opacity="0.71"/><circle cx="149" cy="1049" r="1.3" fill="#fff" opacity="0.57"/><circle cx="135" cy="804" r="1.1" fill="#fff" opacity="0.74"/><circle cx="289" cy="833" r="2.3" fill="#fff" opacity="0.70"/><circle cx="664" cy="921" r="2.9" fill="#fff" opacity="0.53"/><circle cx="362" cy="883" r="1.4" fill="#fff" opacity="0.34"/><circle cx="469" cy="793" r="1.2" fill="#fff" opacity="0.67"/><circle cx="419" cy="691" r="1.5" fill="#fff" opacity="0.54"/><circle cx="345" cy="988" r="2.6" fill="#fff" opacity="0.48"/><circle cx="759" cy="746" r="1.3" fill="#fff" opacity="0.60"/><circle cx="511" cy="794" r="2.8" fill="#fff" opacity="0.35"/><circle cx="115" cy="744" r="1.4" fill="#fff" opacity="0.32"/><ellipse cx="400.0" cy="1030.0" rx="480.0" ry="120.0" fill="url(#glow)" opacity=".5"/><g transform="translate(461.82361087433986,892.0) scale(1.894736842105263)"><ellipse cx="0" cy="-95" rx="26" ry="30" fill="#0a0a12"/><path d="M-42,-60 Q0,-80 42,-60 L58,90 Q0,110 -58,90 Z" fill="#0a0a12"/><path d="M-30,-58 L-70,60 L-46,64 Z" fill="#0a0a12"/><path d="M30,-58 L74,50 L50,56 Z" fill="#0a0a12"/></g><ellipse cx="461.82361087433986" cy="712.0" rx="28.42105263157895" ry="31.57894736842105" fill="#f7e7b8" opacity=".9"/><ellipse cx="317.1629381106402" cy="652.0" rx="116.72347487846467" ry="69.15502635829634" fill="#ffffff" stroke="#111" stroke-width="3"/><polygon points="276.30972190317755,710.7817724045519 229.62033195179168,700.4085184508074 223.78415820786847,745.3592855837001" fill="#ffffff" stroke="#111" stroke-width="3" stroke-linejoin="round"/><ellipse cx="317.1629381106402" cy="652.0" rx="114.72347487846467" ry="67.15502635829634" fill="#ffffff"/><rect x="247.1818431747758" y="639.0" width="139.96218987172884" height="7" rx="3" fill="#2a2a2a"/><rect x="257.87810994477144" y="657.0" width="118.56965633173749" height="7" rx="3" fill="#2a2a2a"/><polygon points="88,854 171,786 220,854 262,786 350,854 396,786 453,854 518,786 582,854" fill="#f7e7b8" stroke="#0d0d12" stroke-width="4" opacity=".95"/></g><g><rect x="60" y="1130" width="680" height="360" rx="6" fill="url(#bg)"/><rect x="60" y="1130" width="680" height="360" fill="url(#light)"/><circle cx="267" cy="1487" r="2.1" fill="#fff" opacity="0.66"/><circle cx="673" cy="1242" r="1.7" fill="#fff" opacity="0.45"/><circle cx="502" cy="1180" r="1.1" fill="#fff" opacity="0.22"/><circle cx="248" cy="1300" r="2.5" fill="#fff" opacity="0.67"/><circle cx="141" cy="1427" r="2.7" fill="#fff" opacity="0.21"/><circle cx="365" cy="1437" r="3.0" fill="#fff" opacity="0.62"/><circle cx="498" cy="1234" r="1.3" fill="#fff" opacity="0.30"/><circle cx="206" cy="1316" r="2.6" fill="#fff" opacity="0.37"/><circle cx="553" cy="1348" r="2.8" fill="#fff" opacity="0.32"/><circle cx="304" cy="1197" r="2.6" fill="#fff" opacity="0.52"/><circle cx="343" cy="1275" r="2.1" fill="#fff" opacity="0.35"/><circle cx="120" cy="1223" r="2.2" fill="#fff" opacity="0.41"/><circle cx="322" cy="1402" r="2.9" fill="#fff" opacity="0.71"/><circle cx="138" cy="1242" r="1.9" fill="#fff" opacity="0.51"/><circle cx="347" cy="1452" r="3.0" fill="#fff" opacity="0.34"/><circle cx="275" cy="1493" r="2.5" fill="#fff" opacity="0.25"/><circle cx="78" cy="1155" r="2.6" fill="#fff" opacity="0.76"/><circle cx="211" cy="1454" r="1.0" fill="#fff" opacity="0.41"/><circle cx="141" cy="1418" r="2.7" fill="#fff" opacity="0.67"/><circle cx="631" cy="1188" r="1.1" fill="#fff" opacity="0.38"/><circle cx="351" cy="1280" r="2.3" fill="#fff" opacity="0.48"/><circle cx="62" cy="1374" r="2.0" fill="#fff" opacity="0.36"/><circle cx="391" cy="1313" r="2.5" fill="#fff" opacity="0.65"/><circle cx="101" cy="1489" r="2.0" fill="#fff" opacity="0.34"/><circle cx="704" cy="1174" r="1.4" fill="#fff" opacity="0.56"/><circle cx="582" cy="1389" r="1.8" fill="#fff" opacity="0.43"/><circle cx="132" cy="1190" r="1.9" fill="#fff" opacity="0.61"/><circle cx="309" cy="1230" r="1.8" fill="#fff" opacity="0.69"/><circle cx="523" cy="1127" r="1.4" fill="#fff" opacity="0.30"/><circle cx="577" cy="1206" r="1.8" fill="#fff" opacity="0.28"/><circle cx="119" cy="1331" r="1.7" fill="#fff" opacity="0.29"/><circle cx="462" cy="1209" r="1.2" fill="#fff" opacity="0.69"/><circle cx="177" cy="1459" r="3.0" fill="#fff" opacity="0.45"/><circle cx="410" cy="1176" r="1.1" fill="#fff" opacity="0.51"/><circle cx="459" cy="1268" r="1.6" fill="#fff" opacity="0.38"/><circle cx="430" cy="1215" r="2.5" fill="#fff" opacity="0.23"/><circle cx="668" cy="1132" r="1.1" fill="#fff" opacity="0.71"/><circle cx="541" cy="1269" r="2.8" fill="#fff" opacity="0.36"/><circle cx="735" cy="1198" r="1.3" fill="#fff" opacity="0.67"/><circle cx="463" cy="1465" r="1.3" fill="#fff" opacity="0.51"/><ellipse cx="400.0" cy="1443.0" rx="480.0" ry="76.0" fill="url(#glow)" opacity=".5"/><g transform="translate(280.0,1355.6) scale(1.2)"><ellipse cx="0" cy="-95" rx="26" ry="30" fill="#0a0a12"/><path d="M-42,-60 Q0,-80 42,-60 L58,90 Q0,110 -58,90 Z" fill="#0a0a12"/><path d="M-30,-58 L-70,60 L-46,64 Z" fill="#0a0a12"/><path d="M30,-58 L74,50 L50,56 Z" fill="#0a0a12"/></g><ellipse cx="280.0" cy="1241.6" rx="18.0" ry="20.0" fill="#f7e7b8" opacity=".9"/><g transform="translate(520.0,1355.6) scale(1.2)"><ellipse cx="0" cy="-95" rx="26" ry="30" fill="#0a0a12"/><path d="M-42,-60 Q0,-80 42,-60 L58,90 Q0,110 -58,90 Z" fill="#0a0a12"/><path d="M-30,-58 L-70,60 L-46,64 Z" fill="#0a0a12"/><path d="M30,-58 L74,50 L50,56 Z" fill="#0a0a12"/></g><ellipse cx="520.0" cy="1241.6" rx="18.0" ry="20.0" fill="#f7e7b8" opacity=".9"/><ellipse cx="252.67754470151115" cy="1203.6" rx="114.25538408449543" ry="63.05271764568097" fill="#ffffff" stroke="#111" stroke-width="3"/><polygon points="212.68816027193776,1257.1948099988288 166.98600663813957,1247.7369023519766 161.2732374339148,1288.7211688216692" fill="#ffffff" stroke="#111" stroke-width="3" stroke-linejoin="round"/><ellipse cx="252.67754470151115" cy="1203.6" rx="112.25538408449543" ry="61.05271764568097" fill="#ffffff"/><rect x="169.82565902032772" y="1181.6" width="165.70377136236687" height="7" rx="3" fill="#2a2a2a"/><rect x="184.7556544799922" y="1199.6" width="135.84378044303793" height="7" rx="3" fill="#2a2a2a"/><rect x="169.9410422543496" y="1217.6" width="165.47300489432308" height="7" rx="3" fill="#2a2a2a"/></g></svg>