<svg xmlns="http://www.w3.org/2000/svg" viewBox="0 0 800 1500" width="800" height="1500">
<defs>
 <linearGradient id="bg" x1="0" y1="0" x2="0" y2="1"><stop offset="0" stop-color="#2a0f14"/><stop offset="1" stop-color="#a63a3a"/></linearGradient>
 <linearGradient id="glow" x1="0" y1="0" x2="1" y2="1"><stop offset="0" stop-color="#f5d0c9" stop-opacity=".9"/><stop offset="1" stop-color="#a63a3a" stop-opacity="0"/></linearGradient>
 <radialGradient id="light" cx=".5" cy=".3" r=".7"><stop offset="0" stop-color="#fff" stop-opacity=".35"/><stop offset="1" stop-color="#000" stop-opacity="0"/></radialGradient>
</defs>
<rect width="800" height="1500" fill="#0d0d12"/><g><rect x="60" y="10" width="680" height="580" rx="6" fill="url(#bg)"/><rect x="60" y="10" width="680" height="580" fill="url(#light)"/><circle cx="724" cy="225" r="2.2" fill="#fff" opacity="0.45"/><circle cx="82" cy="172" r="2.0" fill="#fff" opacity="0.21"/><circle cx="493" cy="568" r="2.8" fill="#fff" opacity="0.57"/><circle cx="229" cy="129" r="1.1" fill="#fff" opacity="0.63"/><circle cx="503" cy="32" r="1.6" fill="#fff" opacity="0.23"/><circle cx="280" cy="560" r="1.5" fill="#fff" opacity="0.23"/><circle cx="553" cy="362" r="1.3" fill="#fff" opacity="0.77"/><circle cx="658" cy="569" r="2.0" fill="#fff" opacity="0.48"/><circle cx="298" cy="80" r="1.5" fill="#fff" opacity="0.21"/><circle cx="278" cy="517" r="2.8" fill="#fff" opacity="0.74"/><circle cx="592" cy="90" r="2.2" fill="#fff" opacity="0.58"/><circle cx="301" cy="328" r="1.3" fill="#fff" opacity="0.39"/><circle cx="392" cy="44" r="1.1" fill="#fff" opacity="0.32"/><circle cx="426" cy="42" r="1.7" fill="#fff" opacity="0.39"/><circle cx="250" cy="321" r="2.2" fill="#fff" opacity="0.60"/><circle cx="696" cy="82" r="1.3" fill="#fff" opacity="0.30"/><circle cx="701" cy="81" r="2.1" fill="#fff" opacity="0.80"/><circle cx="314" cy="312" r="2.0" fill="#fff" opacity="0.75"/><circle cx="622" cy="233" r="2.2" fill="#fff" opacity="0.39"/><circle cx="335" cy="227" r="2.6" fill="#fff" opacity="0.68"/><circle cx="146" cy="383" r="2.8" fill="#fff" opacity="0.31"/><circle cx="157" cy="128" r="2.4" fill="#fff" opacity="0.64"/><circle cx="276" cy="258" r="2.6" fill="#fff" opacity="0.45"/><circle cx="694" cy="128" r="1.4" fill="#fff" opacity="0.31"/><circle cx="448" cy="513" r="2.6" fill="#fff" opacity="0.72"/><circle cx="651" cy="478" r="1.3" fill="#fff" opacity="0.62"/><circle cx="321" cy="96" r="2.2" fill="#fff" opacity="0.50"/><circle cx="234" cy="350" r="1.1" fill="#fff" opacity="0.64"/><circle cx="696" cy="412" r="1.7" fill="#fff" opacity="0.76"/><circle cx="417" cy="480" r="1.8" fill="#fff" opacity="0.25"/><circle cx="657" cy="165" r="2.5" fill="#fff" opacity="0.41"/><circle cx="173" cy="517" r="2.3" fill="#fff" opacity="0.72"/><circle cx="706" cy="575" r="2.5" fill="#fff" opacity="0.62"/><circle cx="335" cy="452" r="2.7" fill="#fff" opacity="0.38"/><circle cx="328" cy="366" r="2.2" fill="#fff" opacity="0.38"/><circle cx="423" cy="594" r="2.8" fill="#fff" opacity="0.55"/><circle cx="142" cy="471" r="1.8" fill="#fff" opacity="0.30"/><circle cx="345" cy="75" r="2.7" fill="#fff" opacity="0.60"/><circle cx="707" cy="598" r="2.7" fill="#fff" opacity="0.37"/><circle cx="644" cy="488" r="1.3" fill="#fff" opacity="0.22"/><ellipse cx="400.0" cy="510.0" rx="480.0" ry="120.0" fill="url(#glow)" opacity=".5"/><g transform="translate(393.9743428199674,372.0) scale(1.894736842105263)"><ellipse cx="0" cy="-95" rx="26" ry="30" fill="#0a0a12"/><path d="M-42,-60 Q0,-80 42,-60 L58,90 Q0,110 -58,90 Z" fill="#0a0a12"/><path d="M-30,-58 L-70,60 L-46,64 Z" fill="#0a0a12"/><path d="M30,-58 L74,50 L50,56 Z" fill="#0a0a12"/></g><ellipse cx="393.9743428199674" cy="192.0" rx="28.42105263157895" ry="31.57894736842105" fill="#f5d0c9" opacity=".9"/></g><g><rect x="40" y="610" width="720" height="500" rx="6" fill="url(#bg)"/><rect x="40" y="610" width="720" height="500" fill="url(#light)"/><circle cx="672" cy="1093" r="1.2" fill="#fff" opacity="0.22"/><circle cx="699" cy="979" r="1.5" fill="#fff" opacity="0.37"/><circle cx="400" cy="1006" r="1.7" fill="#fff" opacity="0.67"/><circle cx="505" cy="700" r="1.9" fill="#fff" opacity="0.46"/><circle cx="444" cy="649" r="1.7" fill="#fff" opacity="0.22"/><circle cx="57" cy="747" r="2.0" fill="#fff" opacity="0.63"/><circle cx="131" cy="766" r="1.8" fill="#fff" opacity="0.71"/><circle cx="531" cy="1014" r="1.9" fill="#fff" opacity="0.35"/><circle cx="151" cy="757" r="1.1" fill="#fff" opacity="0.73"/><circle cx="403" cy="650" r="1.4" fill="#fff" opacity="0.43"/><circle cx="288" cy="625" r="2.9" fill="#fff" opacity="0.45"/><circle cx="726" cy="931" r="2.6" fill="#fff" opacity="0.70"/><circle cx="380" cy="817" r="1.4" fill="#fff" opacity="0.28"/><circle cx="480" cy="738" r="1.6" fill="#fff" opacity="0.39"/><circle cx="654" cy="1064" r="1.7" fill="#fff" opacity="0.50"/><circle cx="207" cy="962" r="2.2" fill="#fff" opacity="0.22"/><circle cx="679" cy="796" r="1.4" fill="#fff" opacity="0.36"/><circle cx="686" cy="927" r="1.6" fill="#fff" opacity="0.54"/><circle cx="617" cy="835" r="2.4" fill="#fff" opacity="0.30"/><circle cx="727" cy="1069" r="1.1" fill="#fff" opacity="0.37"/><circle cx="671" cy="761" r="2.8" fill="#fff" opacity="0.40"/><circle cx="119" cy="1048" r="1.7" fill="#fff" opacity="0.75"/><circle cx="564" cy="965" r="2.7" fill="#fff" opacity="0.38"/><circle cx="289" cy="944" r="1.3" fill="#fff" opacity="0.32"/><circle cx="86" cy="767" r="1.6" fill="#fff" opacity="0.76"/><circle cx="161" cy="914" r="1.6" fill="#fff" opacity="0.53"/><circle cx="261" cy="870" r="1.2" fill="#fff" opacity="0.49"/><circle cx="564" cy="1069" r="2.0" fill="#fff" opacity="0.61"/><circle cx="566" cy="699" r="2.5" fill="#fff" opacity="0.65"/><circle cx="509" cy="878" r="2.7" fill="#fff" opacity="0.78"/><circle cx="617" cy="1051" r="1.7" fill="#fff" opacity="0.25"/><circle cx="628" cy="977" r="2.7" fill="#fff" opacity="0.32"/><circle cx="656" cy="757" r="2.2" fill="#fff" opacity="0.29"/><circle cx="381" cy="855" r="1.8" fill="#fff" opacity="0.73"/><circle cx="154" cy="938" r="2.7" fill="#fff" opacity="0.73"/><circle cx="210" cy="708" r="1.0" fill="#fff" opacity="0.54"/><circle cx="79" cy="644" r="2.8" fill="#fff" opacity="0.24"/><circle cx="694" cy="778" r="1.1" fill="#fff" opacity="0.35"/><circle cx="607" cy="898" r="1.1" fill="#fff" opacity="0.49"/><circle cx="412" cy="783" r="1.3" fill="#fff" opacity="0.25"/><ellipse cx="400.0" cy="1042.0" rx="480.0" ry="104.0" fill="url(#glow)" opacity=".5"/><g transform="translate(467.1145004563238,922.4) scale(1.6421052631578947)"><ellipse cx="0" cy="-95" rx="26" ry="30" fill="#0a0a12"/><path d="M-42,-60 Q0,-80 42,-60 L58,90 Q0,110 -58,90 Z" fill="#0a0a12"/><path d="M-30,-58 L-70,60 L-46,64 Z" fill="#0a0a12"/><path d="M30,-58 L74,50 L50,56 Z" fill="#0a0a12"/></g><ellipse cx="467.1145004563238" cy="766.4" rx="24.63157894736842" ry="27.36842105263158" fill="#f5d0c9" opacity=".9"/><ellipse cx="487.9098137471119" cy="714.4" rx="139.689239330757" ry="63.2853809501014" fill="#ffffff" stroke="#111" stroke-width="3"/><polygon points="536.8010475128768,768.1925738075862 592.6767432451796,758.6997666650709 599.6612052117175,799.8352642826369" fill="#ffffff" stroke="#111" stroke-width="3" stroke-linejoin="round"/><ellipse cx="487.9098137471119" cy="714.4" rx="137.689239330757" ry="61.2853809501014" fill="#ffffff"/><rect x="413.2924731751121" y="701.4" width="149.23468114399967" height="7" rx="3" fill="#2a2a2a"/><rect x="406.4800740144021" y="719.4" width="162.85947946541964" height="7" rx="3" fill="#2a2a2a"/></g><g><rect x="40" y="1130" width="720" height="360" rx="6" fill="url(#bg)"/><rect x="40" y="1130" width="720" height="360" fill="url(#light)"/><circle cx="607" cy="1230" r="2.9" fill="#fff" opacity="0.71"/><circle cx="494" cy="1408" r="2.7" fill="#fff" opacity="0.56"/><circle cx="345" cy="1323" r="1.2" fill="#fff" opacity="0.32"/><circle cx="445" cy="1371" r="2.9" fill="#fff" opacity="0.48"/><circle cx="651" cy="1389" r="2.3" fill="#fff" opacity="0.75"/><circle cx="611" cy="1231" r="2.8" fill="#fff" opacity="0.37"/><circle cx="173" cy="1264" r="1.9" fill="#fff" opacity="0.74"/><circle cx="258" cy="1399" r="2.7" fill="#fff" opacity="0.29"/><circle cx="653" cy="1268" r="1.6" fill="#fff" opacity="0.29"/><circle cx="555" cy="1125" r="2.6" fill="#fff" opacity="0.68"/><circle cx="89" cy="1196" r="2.5" fill="#fff" opacity="0.44"/><circle cx="105" cy="1464" r="2.9" fill="#fff" opacity="0.42"/><circle cx="134" cy="1135" r="2.4" fill="#fff" opacity="0.74"/><circle cx="48" cy="1303" r="1.7" fill="#fff" opacity="0.39"/><circle cx="120" cy="1439" r="2.0" fill="#fff" opacity="0.64"/><circle cx="748" cy="1237" r="3.0" fill="#fff" opacity="0.63"/><circle cx="615" cy="1409" r="1.9" fill="#fff" opacity="0.48"/><circle cx="544" cy="1224" r="1.7" fill="#fff" opacity="0.73"/><circle cx="151" cy="1298" r="1.7" fill="#fff" opacity="0.32"/><circle cx="655" cy="1198" r="2.4" fill="#fff" opacity="0.42"/><circle cx="221" cy="1273" r="1.2" fill="#fff" opacity="0.44"/><circle cx="234" cy="1232" r="2.8" fill="#fff" opacity="0.44"/><circle cx="165" cy="1361" r="2.3" fill="#fff" opacity="0.67"/><circle cx="708" cy="1288" r="2.3" fill="#fff" opacity="0.73"/><circle cx="533" cy="1357" r="2.0" fill="#fff" opacity="0.53"/><circle cx="486" cy="1141" r="2.6" fill="#fff" opacity="0.79"/><circle cx="81" cy="1271" r="2.5" fill="#fff" opacity="0.57"/><circle cx="411" cy="1484" r="2.7" fill="#fff" opacity="0.78"/><circle cx="652" cy="1455" r="1.5" fill="#fff" opacity="0.41"/><circle cx="751" cy="1398" r="1.0" fill="#fff" opacity="0.30"/><circle cx="540" cy="1259" r="2.2" fill="#fff" opacity="0.59"/><circle cx="394" cy="1473" r="1.3" fill="#fff" opacity="0.51"/><circle cx="189" cy="1340" r="1.6" fill="#fff" opacity="0.35"/><circle cx="600" cy="1204" r="1.4" fill="#fff" opacity="0.47"/><circle cx="195" cy="1126" r="2.3" fill="#fff" opacity="0.22"/><circle cx="369" cy="1256" r="1.3" fill="#fff" opacity="0.42"/><circle cx="78" cy="1132" r="1.4" fill="#fff" opacity="0.41"/><circle cx="618" cy="1265" r="1.8" fill="#fff" opacity="0.76"/><circle cx="592" cy="1218" r="2.0" fill="#fff" opacity="0.37"/><circle cx="523" cy="1401" r="1.5" fill="#fff" opacity="0.57"/><ellipse cx="400.0" cy="1443.0" rx="480.0" ry="76.0" fill="url(#glow)" opacity=".5"/><g transform="translate(518.0575461262815,1355.6) scale(1.2)"><ellipse cx="0" cy="-95" rx="26" ry="30" fill="#0a0a12"/><path d="M-42,-60 Q0,-80 42,-60 L58,90 Q0,110 -58,90 Z" fill="#0a0a12"/><path d="M-30,-58 L-70,60 L-46,64 Z" fill="#0a0a12"/><path d="M30,-58 L74,50 L50,56 Z" fill="#0a0a12"/></g><ellipse cx="518.0575461262815" cy="1241.6" rx="18.0" ry="20.0" fill="#f5d0c9" opacity=".9"/></g></svg>