<svg xmlns="http://www.w3.org/2000/svg" viewBox="0 0 400 600" width="400" height="600"><defs>
<linearGradient id="sky7" x1="0" y1="0" x2="0" y2="1">
  <stop offset="0" stop-color="#03060f"/><stop offset=".55" stop-color="#0d1c3a"/><stop offset="1" stop-color="#03060f"/>
</linearGradient>
<radialGradient id="halo7" cx=".5" cy=".42" r=".62">
  <stop offset="0" stop-color="#2f7fd6" stop-opacity=".85"/>
  <stop offset=".45" stop-color="#2f7fd6" stop-opacity=".22"/>
  <stop offset="1" stop-color="#2f7fd6" stop-opacity="0"/>
</radialGradient>
<linearGradient id="fig7" x1="0" y1="0" x2="0" y2="1">
  <stop offset="0" stop-color="#000" stop-opacity=".92"/><stop offset="1" stop-color="#000" stop-opacity=".99"/>
</linearGradient>
<linearGradient id="floor7" x1="0" y1="0" x2="0" y2="1">
  <stop offset="0" stop-color="#2f7fd6" stop-opacity=".30"/><stop offset="1" stop-color="#03060f" stop-opacity="0"/>
</linearGradient>
<radialGradient id="vig7" cx=".5" cy=".45" r=".78">
  <stop offset=".5" stop-color="#000" stop-opacity="0"/><stop offset="1" stop-color="#000" stop-opacity=".72"/>
</radialGradient>
<linearGradient id="band7" x1="0" y1="0" x2="0" y2="1">
  <stop offset="0" stop-color="#000" stop-opacity="0"/><stop offset="1" stop-color="#000" stop-opacity=".85"/>
</linearGradient>
<filter id="soft7" x="-30%" y="-30%" width="160%" height="160%">
  <feGaussianBlur stdDeviation="9"/></filter>
<filter id="mist7" x="-30%" y="-30%" width="160%" height="160%">
  <feGaussianBlur stdDeviation="16"/></filter>
</defs><rect width="400" height="600" fill="url(#sky7)"/><ellipse cx="200.0" cy="327.4" rx="280.0" ry="204.00000000000003" fill="url(#halo7)"/><polygon points="255.0,247.4 33.2,600 120.4,600" fill="#2f7fd6" opacity="0.1" filter="url(#soft7)"/><polygon points="255.0,247.4 406.8,600 490.0,600" fill="#2f7fd6" opacity="0.1" filter="url(#soft7)"/><polygon points="255.0,247.4 273.9,600 376.9,600" fill="#2f7fd6" opacity="0.1" filter="url(#soft7)"/><polygon points="255.0,247.4 287.9,600 358.8,600" fill="#2f7fd6" opacity="0.1" filter="url(#soft7)"/><polygon points="255.0,247.4 122.8,600 189.7,600" fill="#2f7fd6" opacity="0.1" filter="url(#soft7)"/><rect x="108.0" y="147.4" width="184" height="250" fill="#03060f" opacity=".7"/><rect x="130.0" y="165.4" width="16" height="232" fill="#000" opacity=".55"/><rect x="177.0" y="165.4" width="16" height="232" fill="#000" opacity=".55"/><rect x="224.0" y="165.4" width="16" height="232" fill="#000" opacity=".55"/><rect x="271.0" y="165.4" width="16" height="232" fill="#000" opacity=".55"/><polygon points="96.0,147.4 200.0,91.4 304.0,147.4" fill="#03060f" opacity=".8"/><path d="M-20.0,364.7 Q-3.0,356.3 14.0,377.1 Q31.0,368.7 48.0,383.2 Q65.0,360.0 82.0,368.4 Q99.0,353.6 116.0,362.0 Q133.0,353.3 150.0,361.7 Q167.0,353.3 184.0,378.2 Q201.0,360.0 218.0,368.4 Q235.0,360.0 252.0,380.6 Q269.0,372.2 286.0,381.7 Q303.0,353.5 320.0,361.9 Q337.0,353.5 354.0,376.8 Q371.0,358.2 388.0,366.6 L420,600 L-20,600 Z" fill="#000" opacity="0.6"/><rect x="0" y="397.4" width="400" height="202.6" fill="url(#floor7)"/><ellipse cx="200.0" cy="403.4" rx="184.0" ry="16" fill="#2f7fd6" opacity=".3" filter="url(#soft7)"/><circle cx="315.0" cy="76.3" r="1.2" fill="#bcd9ff" opacity="0.6"/><circle cx="125.7" cy="246.5" r="2.1" fill="#bcd9ff" opacity="0.4"/><circle cx="134.9" cy="455.1" r="0.6" fill="#bcd9ff" opacity="0.5"/><circle cx="199.7" cy="179.5" r="0.9" fill="#bcd9ff" opacity="0.3"/><circle cx="179.6" cy="402.4" r="1.4" fill="#bcd9ff" opacity="0.3"/><circle cx="262.4" cy="25.3" r="1.8" fill="#bcd9ff" opacity="0.2"/><circle cx="220.1" cy="288.2" r="0.6" fill="#bcd9ff" opacity="0.2"/><circle cx="205.7" cy="296.8" r="2.3" fill="#bcd9ff" opacity="0.4"/><circle cx="295.4" cy="481.8" r="1.1" fill="#bcd9ff" opacity="0.2"/><circle cx="60.4" cy="494.6" r="0.9" fill="#bcd9ff" opacity="0.2"/><circle cx="134.6" cy="399.6" r="2.1" fill="#bcd9ff" opacity="0.7"/><circle cx="-3.6" cy="434.8" r="0.8" fill="#bcd9ff" opacity="0.7"/><circle cx="392.2" cy="261.0" r="1.5" fill="#bcd9ff" opacity="0.5"/><circle cx="348.6" cy="30.4" r="1.8" fill="#bcd9ff" opacity="0.6"/><circle cx="95.0" cy="505.4" r="1.4" fill="#bcd9ff" opacity="0.7"/><circle cx="202.1" cy="88.6" r="2.3" fill="#bcd9ff" opacity="0.4"/><circle cx="177.6" cy="278.9" r="1.5" fill="#bcd9ff" opacity="0.2"/><circle cx="108.0" cy="429.3" r="1.0" fill="#bcd9ff" opacity="0.7"/><circle cx="78.9" cy="216.1" r="0.5" fill="#bcd9ff" opacity="0.4"/><circle cx="-6.2" cy="305.4" r="2.3" fill="#bcd9ff" opacity="0.6"/><circle cx="240.3" cy="503.1" r="0.5" fill="#bcd9ff" opacity="0.2"/><circle cx="172.8" cy="505.9" r="1.9" fill="#bcd9ff" opacity="0.2"/><circle cx="179.4" cy="254.1" r="1.3" fill="#bcd9ff" opacity="0.6"/><circle cx="27.0" cy="104.4" r="1.1" fill="#bcd9ff" opacity="0.3"/><circle cx="150.7" cy="577.9" r="1.0" fill="#bcd9ff" opacity="0.6"/><circle cx="0.8" cy="198.8" r="1.6" fill="#bcd9ff" opacity="0.7"/><circle cx="248.9" cy="502.3" r="0.7" fill="#bcd9ff" opacity="0.2"/><circle cx="226.0" cy="477.2" r="1.5" fill="#bcd9ff" opacity="0.4"/><circle cx="9.1" cy="183.1" r="1.9" fill="#bcd9ff" opacity="0.6"/><circle cx="108.0" cy="153.7" r="0.6" fill="#bcd9ff" opacity="0.2"/><circle cx="205.0" cy="452.5" r="1.6" fill="#bcd9ff" opacity="0.7"/><circle cx="193.4" cy="38.8" r="0.9" fill="#bcd9ff" opacity="0.4"/><circle cx="333.3" cy="6.3" r="1.5" fill="#bcd9ff" opacity="0.3"/><circle cx="232.8" cy="0.4" r="0.7" fill="#bcd9ff" opacity="0.2"/><circle cx="8.3" cy="9.3" r="2.3" fill="#bcd9ff" opacity="0.3"/><circle cx="28.8" cy="257.8" r="1.4" fill="#bcd9ff" opacity="0.5"/><circle cx="34.2" cy="541.1" r="1.0" fill="#bcd9ff" opacity="0.6"/><circle cx="308.0" cy="203.5" r="0.7" fill="#bcd9ff" opacity="0.6"/><circle cx="14.9" cy="153.3" r="0.9" fill="#bcd9ff" opacity="0.6"/><circle cx="372.4" cy="385.6" r="1.5" fill="#bcd9ff" opacity="0.3"/><circle cx="310.4" cy="106.3" r="1.9" fill="#bcd9ff" opacity="0.6"/><circle cx="6.8" cy="239.8" r="0.7" fill="#bcd9ff" opacity="0.7"/><circle cx="388.3" cy="354.9" r="2.1" fill="#bcd9ff" opacity="0.5"/><circle cx="298.9" cy="395.3" r="1.5" fill="#bcd9ff" opacity="0.6"/><circle cx="21.9" cy="521.7" r="0.7" fill="#bcd9ff" opacity="0.7"/><circle cx="284.6" cy="88.1" r="1.9" fill="#bcd9ff" opacity="0.2"/><circle cx="11.7" cy="460.0" r="1.8" fill="#bcd9ff" opacity="0.6"/><circle cx="83.3" cy="155.7" r="1.7" fill="#bcd9ff" opacity="0.4"/><circle cx="243.2" cy="474.4" r="2.4" fill="#bcd9ff" opacity="0.3"/><circle cx="147.5" cy="298.9" r="1.2" fill="#bcd9ff" opacity="0.3"/><circle cx="350.1" cy="111.5" r="1.8" fill="#bcd9ff" opacity="0.4"/><circle cx="355.7" cy="206.1" r="1.6" fill="#bcd9ff" opacity="0.3"/><circle cx="127.4" cy="399.1" r="0.9" fill="#bcd9ff" opacity="0.3"/><circle cx="151.6" cy="540.5" r="2.2" fill="#bcd9ff" opacity="0.7"/><circle cx="113.8" cy="470.2" r="0.7" fill="#bcd9ff" opacity="0.6"/><circle cx="319.8" cy="403.9" r="0.6" fill="#bcd9ff" opacity="0.2"/><circle cx="334.6" cy="236.2" r="1.8" fill="#bcd9ff" opacity="0.5"/><circle cx="13.4" cy="10.4" r="1.2" fill="#bcd9ff" opacity="0.2"/><circle cx="188.5" cy="348.7" r="0.8" fill="#bcd9ff" opacity="0.6"/><circle cx="151.2" cy="250.5" r="1.1" fill="#bcd9ff" opacity="0.7"/><circle cx="234.3" cy="325.4" r="2.2" fill="#bcd9ff" opacity="0.4"/><circle cx="387.5" cy="186.3" r="1.9" fill="#bcd9ff" opacity="0.4"/><circle cx="-9.7" cy="337.4" r="2.2" fill="#bcd9ff" opacity="0.4"/><circle cx="152.6" cy="513.6" r="0.7" fill="#bcd9ff" opacity="0.7"/><circle cx="205.7" cy="427.7" r="2.1" fill="#bcd9ff" opacity="0.6"/><circle cx="114.6" cy="560.6" r="1.2" fill="#bcd9ff" opacity="0.3"/><circle cx="338.5" cy="244.8" r="2.1" fill="#bcd9ff" opacity="0.2"/><circle cx="1.9" cy="121.0" r="1.0" fill="#bcd9ff" opacity="0.7"/><circle cx="28.4" cy="23.3" r="1.9" fill="#bcd9ff" opacity="0.2"/><circle cx="1.5" cy="99.8" r="1.5" fill="#bcd9ff" opacity="0.2"/><circle cx="381.6" cy="4.8" r="2.4" fill="#bcd9ff" opacity="0.4"/><circle cx="106.3" cy="30.8" r="1.7" fill="#bcd9ff" opacity="0.6"/><circle cx="242.6" cy="322.9" r="0.8" fill="#bcd9ff" opacity="0.3"/><circle cx="215.3" cy="383.6" r="1.0" fill="#bcd9ff" opacity="0.5"/><circle cx="392.3" cy="126.7" r="2.3" fill="#bcd9ff" opacity="0.7"/><circle cx="13.6" cy="213.1" r="1.5" fill="#bcd9ff" opacity="0.5"/><circle cx="3.8" cy="174.4" r="2.2" fill="#bcd9ff" opacity="0.2"/><circle cx="368.9" cy="402.5" r="1.9" fill="#bcd9ff" opacity="0.2"/><circle cx="357.0" cy="79.9" r="2.1" fill="#bcd9ff" opacity="0.2"/><circle cx="99.9" cy="334.8" r="1.0" fill="#bcd9ff" opacity="0.3"/><circle cx="156.2" cy="393.2" r="0.6" fill="#bcd9ff" opacity="0.5"/><circle cx="398.8" cy="241.5" r="0.5" fill="#bcd9ff" opacity="0.4"/><circle cx="185.3" cy="160.9" r="0.8" fill="#bcd9ff" opacity="0.7"/><circle cx="354.0" cy="456.5" r="1.2" fill="#bcd9ff" opacity="0.6"/><circle cx="170.6" cy="141.0" r="1.0" fill="#bcd9ff" opacity="0.4"/><circle cx="189.3" cy="376.3" r="1.4" fill="#bcd9ff" opacity="0.6"/><circle cx="13.3" cy="79.6" r="0.8" fill="#bcd9ff" opacity="0.6"/><circle cx="375.7" cy="51.1" r="0.7" fill="#bcd9ff" opacity="0.7"/><circle cx="369.1" cy="144.4" r="1.8" fill="#bcd9ff" opacity="0.4"/><circle cx="268.3" cy="271.6" r="1.9" fill="#bcd9ff" opacity="0.3"/><rect x="-20" y="277.4" width="440" height="150" fill="#0d1c3a" opacity=".22" filter="url(#mist7)"/><g><path d="M174.6,199.5 C157.7,280.2 153.5,392.3 148.3,409.9 L251.7,409.9 C246.5,392.3 242.3,280.2 225.4,199.5 Z" fill="#06060b" opacity=".92"/><path d="M182.9,280.2 L199.4,280.2 L183.2,343.2 L184.0,407.4 L170.6,407.4 L171.4,343.2 Z" fill="#06060b"/><path d="M200.6,280.2 L217.1,280.2 L228.6,343.2 L229.4,407.4 L216.0,407.4 L216.8,343.2 Z" fill="#06060b"/><path d="M171.8,202.0 Q200.0,193.2 228.2,202.0 L219.7,285.2 Q200.0,292.8 180.3,285.2 Z" fill="#06060b"/><path d="M172.9,205.1 q-7.6,27.7 -3.0,54.2 l8.1,1.0 q-1.0,-27.7 6.6,-51.7 Z" fill="#06060b"/><path d="M227.1,205.1 q12.6,25.2 8.8,50.4 l-8.1,1.5 q1.5,-23.9 -11.3,-47.9 Z" fill="#06060b"/><rect x="194.7" y="180.4" width="10.6" height="11.3" fill="#06060b"/><ellipse cx="200.0" cy="171.8" rx="13.4" ry="15.6" fill="#06060b"/><path d="M185.6,170.2 q3.1,-20.3 28.7,-0.9 q-4.7,-8.6 -14.4,-8.1 q-14.8,-0.3 -14.4,10.6 Z" fill="#06060b"/><g opacity=".95" stroke="#2f7fd6" fill="none" stroke-linecap="round"><path d="M212.5,163.2 q5.3,13.3 -1.6,22.2" stroke-width="2.8"/><path d="M227.7,203.6 L220.0,280.2" stroke-width="3.3"/><path d="M213.0,282.7 L223.7,404.9" stroke-width="2.5" opacity=".8"/></g></g><circle cx="186.4" cy="379.1" r="2.9" fill="#2f7fd6" opacity="0.2"/><circle cx="160.9" cy="253.6" r="2.2" fill="#2f7fd6" opacity="0.2"/><circle cx="372.3" cy="354.9" r="0.9" fill="#2f7fd6" opacity="0.4"/><circle cx="6.2" cy="244.6" r="3.1" fill="#2f7fd6" opacity="0.6"/><circle cx="316.3" cy="415.8" r="1.0" fill="#2f7fd6" opacity="0.6"/><circle cx="378.4" cy="265.4" r="0.7" fill="#2f7fd6" opacity="0.5"/><circle cx="291.0" cy="402.6" r="1.6" fill="#2f7fd6" opacity="0.7"/><circle cx="171.1" cy="274.7" r="2.2" fill="#2f7fd6" opacity="0.3"/><circle cx="68.1" cy="304.2" r="2.8" fill="#2f7fd6" opacity="0.4"/><circle cx="314.4" cy="404.4" r="1.5" fill="#2f7fd6" opacity="0.6"/><circle cx="369.2" cy="388.3" r="1.5" fill="#2f7fd6" opacity="0.4"/><circle cx="143.1" cy="418.1" r="2.9" fill="#2f7fd6" opacity="0.4"/><circle cx="27.2" cy="320.6" r="1.2" fill="#2f7fd6" opacity="0.2"/><circle cx="297.3" cy="234.2" r="0.8" fill="#2f7fd6" opacity="0.4"/><circle cx="181.3" cy="424.0" r="3.1" fill="#2f7fd6" opacity="0.6"/><circle cx="277.3" cy="358.3" r="1.5" fill="#2f7fd6" opacity="0.2"/><circle cx="402.0" cy="253.4" r="0.6" fill="#2f7fd6" opacity="0.2"/><circle cx="64.9" cy="408.7" r="0.8" fill="#2f7fd6" opacity="0.3"/><circle cx="111.0" cy="394.0" r="0.9" fill="#2f7fd6" opacity="0.5"/><circle cx="251.6" cy="327.8" r="1.0" fill="#2f7fd6" opacity="0.6"/><circle cx="112.6" cy="398.9" r="2.3" fill="#2f7fd6" opacity="0.4"/><circle cx="-7.8" cy="420.5" r="2.9" fill="#2f7fd6" opacity="0.2"/><circle cx="20.8" cy="297.2" r="2.8" fill="#2f7fd6" opacity="0.6"/><circle cx="376.2" cy="236.7" r="1.5" fill="#2f7fd6" opacity="0.6"/><circle cx="180.8" cy="251.1" r="1.1" fill="#2f7fd6" opacity="0.7"/><circle cx="68.3" cy="273.4" r="0.9" fill="#2f7fd6" opacity="0.7"/><path d="M99.4,600 L122.6,563.6 L164.8,573.8 L204.8,600 Z" fill="#000" opacity=".85"/><path d="M67.8,600 L79.9,572.6 L102.1,580.3 L123.1,600 Z" fill="#000" opacity=".85"/><path d="M368.6,600 L382.0,578.3 L406.2,584.3 L429.2,600 Z" fill="#000" opacity=".85"/><path d="M67.9,600 L89.1,567.0 L127.7,576.2 L164.3,600 Z" fill="#000" opacity=".85"/><path d="M145.3,600 L156.9,576.6 L178.0,583.2 L198.0,600 Z" fill="#000" opacity=".85"/><rect width="400" height="600" fill="url(#vig7)"/><rect x="0" y="450" width="400" height="150" fill="url(#band7)"/><rect x="24" y="528" width="172.8" height="9" rx="4.5" fill="#bcd9ff" opacity=".85"/><rect x="24" y="546" width="77.0" height="6" rx="3" fill="#2f7fd6" opacity=".8"/><rect x="24" y="562" width="46" height="4" rx="2" fill="#bcd9ff" opacity=".35"/></svg>