<svg xmlns="http://www.w3.org/2000/svg" viewBox="0 0 400 600" width="400" height="600"><defs>
<linearGradient id="sky14" x1="0" y1="0" x2="0" y2="1">
  <stop offset="0" stop-color="#04211c"/><stop offset=".55" stop-color="#0d5347"/><stop offset="1" stop-color="#04211c"/>
</linearGradient>
<radialGradient id="halo14" cx=".5" cy=".42" r=".62">
  <stop offset="0" stop-color="#3fd6a8" stop-opacity=".85"/>
  <stop offset=".45" stop-color="#3fd6a8" stop-opacity=".22"/>
  <stop offset="1" stop-color="#3fd6a8" stop-opacity="0"/>
</radialGradient>
<linearGradient id="fig14" x1="0" y1="0" x2="0" y2="1">
  <stop offset="0" stop-color="#000" stop-opacity=".92"/><stop offset="1" stop-color="#000" stop-opacity=".99"/>
</linearGradient>
<linearGradient id="floor14" x1="0" y1="0" x2="0" y2="1">
  <stop offset="0" stop-color="#3fd6a8" stop-opacity=".30"/><stop offset="1" stop-color="#04211c" stop-opacity="0"/>
</linearGradient>
<radialGradient id="vig14" cx=".5" cy=".45" r=".78">
  <stop offset=".5" stop-color="#000" stop-opacity="0"/><stop offset="1" stop-color="#000" stop-opacity=".72"/>
</radialGradient>
<linearGradient id="band14" x1="0" y1="0" x2="0" y2="1">
  <stop offset="0" stop-color="#000" stop-opacity="0"/><stop offset="1" stop-color="#000" stop-opacity=".85"/>
</linearGradient>
<filter id="soft14" x="-30%" y="-30%" width="160%" height="160%">
  <feGaussianBlur stdDeviation="9"/></filter>
<filter id="mist14" x="-30%" y="-30%" width="160%" height="160%">
  <feGaussianBlur stdDeviation="16"/></filter>
</defs><rect width="400" height="600" fill="url(#sky14)"/><ellipse cx="200.0" cy="297.5" rx="280.0" ry="204.00000000000003" fill="url(#halo14)"/><polygon points="176.1,217.5 140.5,600 230.5,600" fill="#3fd6a8" opacity="0.1" filter="url(#soft14)"/><polygon points="176.1,217.5 49.2,600 123.6,600" fill="#3fd6a8" opacity="0.1" filter="url(#soft14)"/><polygon points="176.1,217.5 119.1,600 215.6,600" fill="#3fd6a8" opacity="0.1" filter="url(#soft14)"/><polygon points="176.1,217.5 167.9,600 253.5,600" fill="#3fd6a8" opacity="0.1" filter="url(#soft14)"/><polygon points="176.1,217.5 254.0,600 349.6,600" fill="#3fd6a8" opacity="0.1" filter="url(#soft14)"/><polygon points="176.1,217.5 184.8,600 270.7,600" fill="#3fd6a8" opacity="0.1" filter="url(#soft14)"/><path d="M-20.0,336.7 Q-3.0,326.6 14.0,335.0 Q31.0,326.6 48.0,351.0 Q65.0,330.2 82.0,338.6 Q99.0,323.8 116.0,332.2 Q133.0,323.8 150.0,335.6 Q167.0,327.2 184.0,336.2 Q201.0,327.8 218.0,340.1 Q235.0,331.7 252.0,342.7 Q269.0,327.3 286.0,335.7 Q303.0,327.3 320.0,343.2 Q337.0,331.1 354.0,339.5 Q371.0,324.2 388.0,332.6 L420,600 L-20,600 Z" fill="#000" opacity="0.6"/><rect x="0" y="367.5" width="400" height="232.5" fill="url(#floor14)"/><ellipse cx="200.0" cy="373.5" rx="184.0" ry="16" fill="#3fd6a8" opacity=".3" filter="url(#soft14)"/><circle cx="-9.6" cy="559.8" r="2.2" fill="#d6fff1" opacity="0.2"/><circle cx="158.9" cy="47.9" r="0.9" fill="#d6fff1" opacity="0.2"/><circle cx="388.0" cy="282.1" r="0.8" fill="#d6fff1" opacity="0.4"/><circle cx="150.4" cy="231.5" r="2.0" fill="#d6fff1" opacity="0.4"/><circle cx="226.2" cy="254.2" r="1.7" fill="#d6fff1" opacity="0.6"/><circle cx="217.7" cy="138.2" r="0.6" fill="#d6fff1" opacity="0.2"/><circle cx="225.9" cy="481.5" r="1.5" fill="#d6fff1" opacity="0.4"/><circle cx="303.2" cy="24.5" r="0.7" fill="#d6fff1" opacity="0.3"/><circle cx="103.5" cy="151.6" r="1.6" fill="#d6fff1" opacity="0.6"/><circle cx="330.0" cy="524.4" r="2.3" fill="#d6fff1" opacity="0.6"/><circle cx="254.7" cy="539.4" r="2.0" fill="#d6fff1" opacity="0.6"/><circle cx="355.6" cy="486.8" r="2.2" fill="#d6fff1" opacity="0.2"/><circle cx="405.2" cy="15.3" r="1.1" fill="#d6fff1" opacity="0.5"/><circle cx="290.6" cy="292.6" r="1.6" fill="#d6fff1" opacity="0.6"/><circle cx="388.4" cy="210.1" r="1.8" fill="#d6fff1" opacity="0.6"/><circle cx="190.8" cy="151.7" r="0.7" fill="#d6fff1" opacity="0.2"/><circle cx="290.2" cy="564.4" r="2.3" fill="#d6fff1" opacity="0.2"/><circle cx="46.9" cy="332.0" r="1.9" fill="#d6fff1" opacity="0.7"/><circle cx="269.7" cy="41.8" r="0.6" fill="#d6fff1" opacity="0.5"/><circle cx="234.9" cy="340.6" r="1.7" fill="#d6fff1" opacity="0.4"/><circle cx="222.5" cy="126.3" r="0.9" fill="#d6fff1" opacity="0.6"/><circle cx="266.4" cy="139.4" r="2.3" fill="#d6fff1" opacity="0.3"/><circle cx="307.8" cy="382.5" r="1.3" fill="#d6fff1" opacity="0.5"/><circle cx="294.8" cy="358.2" r="1.6" fill="#d6fff1" opacity="0.5"/><circle cx="10.2" cy="36.3" r="1.2" fill="#d6fff1" opacity="0.3"/><circle cx="175.1" cy="296.5" r="1.5" fill="#d6fff1" opacity="0.5"/><circle cx="300.7" cy="377.1" r="0.8" fill="#d6fff1" opacity="0.4"/><circle cx="292.5" cy="388.6" r="1.7" fill="#d6fff1" opacity="0.3"/><circle cx="305.1" cy="454.6" r="1.0" fill="#d6fff1" opacity="0.7"/><circle cx="337.1" cy="55.3" r="1.8" fill="#d6fff1" opacity="0.4"/><circle cx="39.4" cy="195.6" r="2.1" fill="#d6fff1" opacity="0.6"/><circle cx="243.1" cy="276.8" r="0.9" fill="#d6fff1" opacity="0.3"/><circle cx="59.1" cy="584.3" r="1.6" fill="#d6fff1" opacity="0.4"/><circle cx="82.8" cy="27.5" r="2.2" fill="#d6fff1" opacity="0.4"/><circle cx="137.8" cy="483.0" r="1.3" fill="#d6fff1" opacity="0.7"/><circle cx="172.4" cy="449.2" r="1.6" fill="#d6fff1" opacity="0.2"/><circle cx="14.0" cy="152.1" r="2.2" fill="#d6fff1" opacity="0.2"/><circle cx="246.1" cy="390.5" r="2.1" fill="#d6fff1" opacity="0.3"/><circle cx="185.9" cy="412.6" r="0.6" fill="#d6fff1" opacity="0.5"/><circle cx="378.0" cy="44.3" r="1.3" fill="#d6fff1" opacity="0.2"/><circle cx="-7.5" cy="270.1" r="1.8" fill="#d6fff1" opacity="0.2"/><circle cx="123.5" cy="141.1" r="2.1" fill="#d6fff1" opacity="0.2"/><circle cx="265.4" cy="215.9" r="1.9" fill="#d6fff1" opacity="0.5"/><circle cx="-1.5" cy="119.2" r="2.3" fill="#d6fff1" opacity="0.5"/><circle cx="230.2" cy="541.5" r="2.1" fill="#d6fff1" opacity="0.4"/><circle cx="178.1" cy="348.9" r="1.4" fill="#d6fff1" opacity="0.3"/><circle cx="223.9" cy="7.9" r="0.5" fill="#d6fff1" opacity="0.7"/><circle cx="111.3" cy="554.7" r="2.1" fill="#d6fff1" opacity="0.2"/><circle cx="256.9" cy="582.9" r="1.8" fill="#d6fff1" opacity="0.6"/><circle cx="136.0" cy="376.2" r="1.6" fill="#d6fff1" opacity="0.2"/><circle cx="286.7" cy="588.6" r="2.1" fill="#d6fff1" opacity="0.3"/><circle cx="116.6" cy="230.7" r="1.6" fill="#d6fff1" opacity="0.2"/><circle cx="193.8" cy="71.9" r="1.4" fill="#d6fff1" opacity="0.7"/><circle cx="240.5" cy="432.7" r="2.1" fill="#d6fff1" opacity="0.4"/><circle cx="326.3" cy="390.5" r="1.0" fill="#d6fff1" opacity="0.7"/><circle cx="22.8" cy="181.5" r="1.5" fill="#d6fff1" opacity="0.3"/><circle cx="343.6" cy="513.4" r="2.1" fill="#d6fff1" opacity="0.5"/><circle cx="408.2" cy="582.0" r="0.9" fill="#d6fff1" opacity="0.3"/><circle cx="17.7" cy="193.7" r="2.1" fill="#d6fff1" opacity="0.3"/><circle cx="111.6" cy="99.2" r="1.2" fill="#d6fff1" opacity="0.7"/><circle cx="253.3" cy="147.6" r="1.7" fill="#d6fff1" opacity="0.5"/><circle cx="214.4" cy="330.8" r="1.3" fill="#d6fff1" opacity="0.4"/><circle cx="93.6" cy="310.0" r="2.0" fill="#d6fff1" opacity="0.4"/><circle cx="37.8" cy="36.5" r="1.6" fill="#d6fff1" opacity="0.4"/><circle cx="314.0" cy="217.3" r="1.2" fill="#d6fff1" opacity="0.7"/><circle cx="43.6" cy="95.7" r="1.1" fill="#d6fff1" opacity="0.2"/><circle cx="90.4" cy="583.4" r="1.3" fill="#d6fff1" opacity="0.6"/><circle cx="236.9" cy="208.9" r="2.1" fill="#d6fff1" opacity="0.3"/><circle cx="361.1" cy="425.4" r="1.0" fill="#d6fff1" opacity="0.3"/><circle cx="85.0" cy="429.3" r="0.9" fill="#d6fff1" opacity="0.6"/><circle cx="98.8" cy="294.2" r="1.9" fill="#d6fff1" opacity="0.2"/><circle cx="184.5" cy="83.7" r="2.4" fill="#d6fff1" opacity="0.7"/><circle cx="48.6" cy="131.4" r="1.5" fill="#d6fff1" opacity="0.7"/><circle cx="281.4" cy="29.4" r="2.1" fill="#d6fff1" opacity="0.4"/><circle cx="11.4" cy="568.4" r="1.2" fill="#d6fff1" opacity="0.4"/><circle cx="162.0" cy="378.2" r="1.9" fill="#d6fff1" opacity="0.2"/><circle cx="215.4" cy="43.8" r="2.4" fill="#d6fff1" opacity="0.4"/><circle cx="148.9" cy="270.2" r="1.5" fill="#d6fff1" opacity="0.6"/><circle cx="152.6" cy="325.6" r="2.3" fill="#d6fff1" opacity="0.6"/><circle cx="85.1" cy="110.5" r="2.0" fill="#d6fff1" opacity="0.6"/><circle cx="278.4" cy="463.4" r="1.2" fill="#d6fff1" opacity="0.4"/><circle cx="187.2" cy="450.5" r="0.6" fill="#d6fff1" opacity="0.2"/><circle cx="305.1" cy="476.9" r="1.3" fill="#d6fff1" opacity="0.4"/><circle cx="16.8" cy="189.1" r="1.8" fill="#d6fff1" opacity="0.3"/><circle cx="291.1" cy="458.2" r="1.9" fill="#d6fff1" opacity="0.7"/><circle cx="183.4" cy="346.1" r="1.0" fill="#d6fff1" opacity="0.4"/><circle cx="62.8" cy="100.1" r="2.0" fill="#d6fff1" opacity="0.7"/><circle cx="101.2" cy="96.2" r="1.7" fill="#d6fff1" opacity="0.5"/><circle cx="48.7" cy="381.6" r="1.3" fill="#d6fff1" opacity="0.4"/><circle cx="253.8" cy="196.3" r="2.2" fill="#d6fff1" opacity="0.5"/><rect x="-20" y="247.5" width="440" height="150" fill="#0d5347" opacity=".22" filter="url(#mist14)"/><g><path d="M152.8,225.9 C121.4,375.7 113.7,583.9 104.1,616.7 L295.9,616.7 C286.3,583.9 278.6,375.7 247.2,225.9 Z" fill="#06060b" opacity=".92"/><path d="M168.2,375.7 L198.9,375.7 L168.8,492.7 L170.2,612.0 L145.4,612.0 L146.9,492.7 Z" fill="#06060b"/><path d="M201.1,375.7 L231.8,375.7 L253.1,492.7 L254.6,612.0 L229.8,612.0 L231.2,492.7 Z" fill="#06060b"/><path d="M147.6,230.6 Q200.0,214.2 252.4,230.6 L236.5,385.0 Q200.0,399.1 163.5,385.0 Z" fill="#06060b"/><path d="M149.7,236.2 q-14.0,51.5 -5.6,100.6 l15.0,1.9 q-1.9,-51.5 12.2,-95.9 Z" fill="#06060b"/><path d="M250.3,236.2 q23.4,46.8 16.4,93.6 l-15.0,2.8 q2.8,-44.5 -21.1,-88.9 Z" fill="#06060b"/><rect x="190.2" y="190.4" width="19.7" height="21.1" fill="#06060b"/><ellipse cx="200.0" cy="174.4" rx="25.0" ry="29.0" fill="#06060b"/><path d="M173.3,171.5 q5.8,-37.7 53.4,-1.7 q-8.7,-16.0 -26.7,-15.1 q-27.6,-0.6 -26.7,19.7 Z" fill="#06060b"/><g opacity=".95" stroke="#3fd6a8" fill="none" stroke-linecap="round"><path d="M223.2,158.5 q9.9,24.7 -2.9,41.2" stroke-width="5.1"/><path d="M251.4,233.4 L237.2,375.7" stroke-width="6.1"/><path d="M224.1,380.3 L244.0,607.3" stroke-width="4.7" opacity=".8"/></g></g><circle cx="178.0" cy="351.8" r="0.9" fill="#3fd6a8" opacity="0.6"/><circle cx="238.7" cy="295.2" r="1.6" fill="#3fd6a8" opacity="0.4"/><circle cx="125.2" cy="212.3" r="2.1" fill="#3fd6a8" opacity="0.7"/><circle cx="5.4" cy="306.3" r="2.2" fill="#3fd6a8" opacity="0.5"/><circle cx="325.3" cy="206.4" r="0.6" fill="#3fd6a8" opacity="0.3"/><circle cx="93.1" cy="338.2" r="2.4" fill="#3fd6a8" opacity="0.5"/><circle cx="140.5" cy="226.2" r="2.5" fill="#3fd6a8" opacity="0.4"/><circle cx="76.6" cy="263.2" r="1.4" fill="#3fd6a8" opacity="0.4"/><circle cx="218.6" cy="342.2" r="0.9" fill="#3fd6a8" opacity="0.4"/><circle cx="116.4" cy="311.4" r="1.0" fill="#3fd6a8" opacity="0.7"/><circle cx="251.0" cy="356.2" r="2.2" fill="#3fd6a8" opacity="0.4"/><circle cx="251.7" cy="376.3" r="2.7" fill="#3fd6a8" opacity="0.2"/><circle cx="64.9" cy="359.8" r="1.1" fill="#3fd6a8" opacity="0.5"/><circle cx="247.7" cy="273.3" r="2.2" fill="#3fd6a8" opacity="0.2"/><circle cx="112.4" cy="266.3" r="1.1" fill="#3fd6a8" opacity="0.4"/><circle cx="120.9" cy="201.7" r="3.0" fill="#3fd6a8" opacity="0.6"/><circle cx="280.6" cy="373.1" r="2.6" fill="#3fd6a8" opacity="0.5"/><circle cx="78.2" cy="217.5" r="0.6" fill="#3fd6a8" opacity="0.6"/><circle cx="118.0" cy="279.6" r="3.0" fill="#3fd6a8" opacity="0.5"/><circle cx="37.8" cy="386.4" r="1.5" fill="#3fd6a8" opacity="0.4"/><circle cx="331.1" cy="187.3" r="1.8" fill="#3fd6a8" opacity="0.6"/><circle cx="33.7" cy="173.1" r="1.6" fill="#3fd6a8" opacity="0.3"/><circle cx="97.1" cy="311.9" r="1.4" fill="#3fd6a8" opacity="0.3"/><circle cx="167.0" cy="312.8" r="3.2" fill="#3fd6a8" opacity="0.6"/><circle cx="14.2" cy="395.3" r="0.6" fill="#3fd6a8" opacity="0.7"/><circle cx="284.3" cy="341.1" r="1.2" fill="#3fd6a8" opacity="0.4"/><path d="M376.7,600 L402.6,585.0 L449.6,589.2 L494.2,600 Z" fill="#000" opacity=".85"/><path d="M200.7,600 L230.2,585.6 L284.0,589.6 L335.1,600 Z" fill="#000" opacity=".85"/><path d="M333.0,600 L364.8,570.4 L422.7,578.7 L477.6,600 Z" fill="#000" opacity=".85"/><rect width="400" height="600" fill="url(#vig14)"/><rect x="0" y="450" width="400" height="150" fill="url(#band14)"/><rect x="24" y="528" width="130.3" height="9" rx="4.5" fill="#d6fff1" opacity=".85"/><rect x="24" y="546" width="114.0" height="6" rx="3" fill="#3fd6a8" opacity=".8"/><rect x="24" y="562" width="46" height="4" rx="2" fill="#d6fff1" opacity=".35"/></svg>